<?xml version="1.0" encoding="UTF-8"?>
<svg version="1.1" xmlns="http://www.w3.org/2000/svg" width="400" height="400">
<path d="M0 0 C132 0 264 0 400 0 C400 132 400 264 400 400 C268 400 136 400 0 400 C0 268 0 136 0 0 Z " fill="#6F82C9" transform="translate(0,0)"/>
<path d="M0 0 C132 0 264 0 400 0 C400 132 400 264 400 400 C268 400 136 400 0 400 C0 268 0 136 0 0 Z M158 21 C156.68696632 21.29510662 155.37319177 21.586942 154.05859375 21.875 C108.11530173 32.78835887 67.987009 64.08501767 43.29443359 103.84228516 C31.10132884 124.1671927 23.51529082 144.78699176 19 168 C18.81308594 168.87366211 18.62617188 169.74732422 18.43359375 170.64746094 C16.57301783 180.17959005 16.60479216 189.70049732 16.625 199.375 C16.62487915 200.26162323 16.6247583 201.14824646 16.62463379 202.06173706 C16.65123756 215.76468795 17.59175692 228.68046431 21 242 C21.29510662 243.31303368 21.586942 244.62680823 21.875 245.94140625 C31.08419035 284.71045312 55.49073542 320.86170221 87 345 C87.59925293 345.45922852 88.19850586 345.91845703 88.81591797 346.39160156 C104.73021141 358.42897505 122.0529972 367.72507864 141 374 C142.11632812 374.37640625 143.23265625 374.7528125 144.3828125 375.140625 C152.14097808 377.64567124 159.99093179 379.49260557 168 381 C168.80276367 381.16991455 169.60552734 381.3398291 170.43261719 381.51489258 C179.96838988 383.36280119 189.44681982 383.44202505 199.125 383.4375 C200.00816895 383.43790283 200.89133789 383.43830566 201.80126953 383.4387207 C251.57509412 383.30832857 296.81590323 362.706748 332 328 C364.09332923 295.57532371 383.68522798 249.43794768 383.45648193 203.77288818 C383.44708588 202.58593353 383.44708588 202.58593353 383.4375 201.375 C383.43445862 200.552276 383.43141724 199.729552 383.42828369 198.88189697 C383.31291386 177.66154023 379.83442456 158.08920711 373 138 C372.43345703 136.28683594 372.43345703 136.28683594 371.85546875 134.5390625 C356.15954538 90.50173685 320.55386775 53.93764554 278.8125 33.875 C253.85933136 22.23576066 227.72922368 16.36403949 200.25 16.5625 C198.94254318 16.56606506 198.94254318 16.56606506 197.6086731 16.56970215 C184.03297963 16.6274889 171.19367761 17.62396186 158 21 Z " fill="#E6E7E8" transform="translate(0,0)"/>
<path d="M0 0 C0.495 1.485 0.495 1.485 1 3 C0.19820313 3.1959375 -0.60359375 3.391875 -1.4296875 3.59375 C-16.95705518 7.67804626 -36.41302071 14.41302071 -48 26 C-47.27039063 25.63648438 -46.54078125 25.27296875 -45.7890625 24.8984375 C-22.92601811 13.89030502 0.7821622 9.41102069 26 8 C26.72638672 7.95858887 27.45277344 7.91717773 28.20117188 7.87451172 C54.50337291 6.59789269 81.18460896 13.19516487 105 24 C101.33768577 20.90111873 97.53693797 18.43233225 93.3125 16.1875 C92.3536792 15.67582275 92.3536792 15.67582275 91.37548828 15.15380859 C84.1152707 11.38699386 76.52186624 8.52078572 68.85839844 5.69238281 C66.55599079 4.83457565 64.27557719 3.92642075 62 3 C62.66 2.01 63.32 1.02 64 0 C81.12014471 -3.28777866 101.44944137 6.75021323 115.69140625 15.34765625 C116.83416016 16.16556641 116.83416016 16.16556641 118 17 C118.82286499 17.57790283 118.82286499 17.57790283 119.66235352 18.16748047 C125.01169577 22.26929075 127.30104956 26.83907312 129.8125 33 C130.43427124 34.47799072 130.43427124 34.47799072 131.06860352 35.98583984 C134.52932725 44.4141563 137.5424725 52.98957282 140.4375 61.625 C140.85040283 62.85605469 141.26330566 64.08710938 141.6887207 65.35546875 C147.31184847 82.57666037 151.23623614 100.85055883 152 119 C152.05381836 119.85319824 152.10763672 120.70639648 152.16308594 121.58544922 C153.36354844 141.80001696 153.36354844 141.80001696 148.75 147.875 C146.53125 150.0078125 146.53125 150.0078125 144 152 C143.0821875 152.78117188 142.164375 153.56234375 141.21875 154.3671875 C128.27586915 164.75555239 114.31786909 169.85240736 98 172 C97.22914063 172.14824219 96.45828125 172.29648437 95.6640625 172.44921875 C93.15072605 172.74292282 91.44654389 172.7106822 89 172 C85.49715816 169.04254445 82.77417373 165.63347802 80 162 C79.25363281 161.10667969 78.50726563 160.21335937 77.73828125 159.29296875 C76 157 76 157 76 155 C76.99966797 154.67128906 76.99966797 154.67128906 78.01953125 154.3359375 C89.60548782 150.34972027 102.96961368 144.54557948 110 134 C108.99582031 134.51949219 107.99164063 135.03898438 106.95703125 135.57421875 C98.47532587 139.91672679 90.01028039 143.8480725 81 147 C80.33154053 147.24008789 79.66308105 147.48017578 78.97436523 147.72753906 C73.36675816 149.68475457 67.76629534 151.01008123 61.9375 152.125 C61.09123047 152.29386719 60.24496094 152.46273437 59.37304688 152.63671875 C23.38948329 159.68361555 -13.38386959 152.02066118 -45 134 C-45.11723765 135.32486735 -45.11723765 135.32486735 -43.12890625 136.890625 C-37.71993911 141.86325233 -32.54101485 145.69672196 -26 149 C-25.175 149.53625 -24.35 150.0725 -23.5 150.625 C-19.85224015 152.63126792 -15.96909421 153.78073577 -12 155 C-14.81595487 161.35556296 -19.46206617 167.72686099 -25 172 C-29.59918854 173.48797276 -33.31053765 172.92431496 -38 172 C-39.26070312 171.78214844 -40.52140625 171.56429687 -41.8203125 171.33984375 C-59.66688538 167.80835089 -74.84507986 158.40830519 -87 145 C-93.93003625 134.60494562 -87.85708117 109.89344498 -85.63256836 98.14331055 C-84.81394254 94.08168222 -83.92199645 90.03926386 -83 86 C-82.84805176 85.31276855 -82.69610352 84.62553711 -82.53955078 83.91748047 C-78.70356778 66.69582421 -72.85223846 49.91921422 -65.77148438 33.77294922 C-65.07954291 32.18279767 -64.42038474 30.57847524 -63.765625 28.97265625 C-58.45937136 16.88820875 -45.50159732 11.19960816 -34 6 C-29.71702891 4.3933217 -25.42988056 3.12771924 -21 2 C-20.30003906 1.77699219 -19.60007812 1.55398437 -18.87890625 1.32421875 C-12.70530938 -0.5625146 -6.39566719 -0.17549087 0 0 Z " fill="#F3F4F5" transform="translate(168,113)"/>
<path d="M0 0 C5.81142925 3.57626416 10.15952656 8.44261869 12.25 15 C13.37319349 23.35892416 12.07916712 30.05231542 7.25 37 C4.625 39.5 4.625 39.5 2.25 41 C1.26 41.66 0.27 42.32 -0.75 43 C-5.68723935 44.41063981 -11.0107819 45.14605185 -15.83203125 43.12890625 C-22.32943734 39.33978798 -27.38825067 34.22417443 -29.75 27 C-30.69003847 19.91507851 -30.19588009 14.05551011 -26.31640625 7.9765625 C-19.22533383 -0.97127452 -11.01128502 -2.93634267 0 0 Z " fill="#6473BB" transform="translate(245.75,191)"/>
<path d="M0 0 C5.21885554 3.01129037 8.1659127 7.80264069 11.0625 12.9375 C12.94067003 20.63799714 11.73839551 27.68099255 7.6875 34.5 C3.2319843 39.44854407 -1.34771705 43.305588 -8.125 43.75 C-14.17896724 43.55905855 -19.33552039 42.32267458 -23.890625 38.0859375 C-29.73608089 31.56600593 -31.14027972 25.52891504 -30.79296875 16.80859375 C-29.72562109 9.45864682 -25.50237968 5.23005847 -19.9609375 0.62890625 C-14.48982111 -3.11790094 -5.87564849 -2.57484982 0 0 Z " fill="#6976BB" transform="translate(171.3125,191.5)"/>
<path d="M0 0 C0.33 0 0.66 0 1 0 C1 4.95 1 9.9 1 15 C-3.95 15 -8.9 15 -14 15 C-14 19.95 -14 24.9 -14 30 C-9.05 30 -4.1 30 1 30 C1 34.95 1 39.9 1 45 C-3.95 45 -8.9 45 -14 45 C-14 49.95 -14 54.9 -14 60 C-18.95 60 -23.9 60 -29 60 C-29 55.05 -29 50.1 -29 45 C-33.95 45 -38.9 45 -44 45 C-44 40.71 -44 36.42 -44 32 C-43.16339844 31.55011719 -42.32679688 31.10023438 -41.46484375 30.63671875 C-26.47766494 22.41991084 -12.11780907 12.11780907 0 0 Z " fill="#E5E5E7" transform="translate(329,330)"/>
<path d="M0 0 C4.95 0 9.9 0 15 0 C15.55417402 4.83642778 15.94174688 8.30750262 15 13 C11.90918659 16.55746564 8.02051526 18.60500407 4 21 C1.82289932 22.5770705 -0.31635369 24.16477543 -2.4375 25.8125 C-2.98156494 26.23184814 -3.52562988 26.65119629 -4.08618164 27.08325195 C-18.83669496 38.58154629 -30.91126977 51.91677153 -41.46875 67.3125 C-41.91822998 67.95864258 -42.36770996 68.60478516 -42.83081055 69.27050781 C-43.75468286 70.63712119 -44.6046882 72.05364848 -45.42578125 73.484375 C-47 75 -47 75 -50.13671875 75.390625 C-53.42447917 75.26041667 -56.71223958 75.13020833 -60 75 C-60 70.05 -60 65.1 -60 60 C-55.05 60 -50.1 60 -45 60 C-45 55.05 -45 50.1 -45 45 C-40.05 45 -35.1 45 -30 45 C-30 40.05 -30 35.1 -30 30 C-25.05 30 -20.1 30 -15 30 C-15 25.05 -15 20.1 -15 15 C-10.05 15 -5.1 15 0 15 C0 10.05 0 5.1 0 0 Z " fill="#FEFEFE" transform="translate(90,30)"/>
<path d="M0 0 C0.88662323 -0.00012085 1.77324646 -0.0002417 2.68673706 -0.00036621 C16.38968795 0.02623756 29.30546431 0.96675692 42.625 4.375 C43.93803368 4.67010662 45.25180823 4.961942 46.56640625 5.25 C81.87747609 13.63778329 122.2722135 36.51754951 142.625 67.375 C138.55930854 65.80761895 136.16392315 62.88907244 133.375 59.6875 C129.06122747 54.86592991 124.64843797 50.46817168 119.625 46.375 C118.89152344 45.75367188 118.15804688 45.13234375 117.40234375 44.4921875 C110.54511862 38.80570812 103.20501975 34.01882032 95.625 29.375 C94.52285156 28.69308594 93.42070312 28.01117188 92.28515625 27.30859375 C75.72209744 17.43260419 58.35526453 11.6876117 39.625 7.375 C38.88701172 7.20097656 38.14902344 7.02695312 37.38867188 6.84765625 C7.67482383 -0.07318227 -25.54735332 1.96369343 -54.35107422 11.79980469 C-57.61218214 12.9044714 -59.8661344 13.375 -63.375 13.375 C-63.705 14.365 -64.035 15.355 -64.375 16.375 C-65.055625 16.271875 -65.73625 16.16875 -66.4375 16.0625 C-69.98358266 16.43974284 -71.6855456 17.96283538 -74.453125 20.09765625 C-76.45017286 21.42496245 -78.07233909 21.99739505 -80.375 22.625 C-94.50401177 26.92617875 -108.13425685 38.11749623 -118.375 48.375 C-119.70577864 49.40591977 -121.05829277 50.40982914 -122.4375 51.375 C-125.66629822 53.7314775 -127.95343433 56.17507394 -130.375 59.375 C-131.096875 59.91125 -131.81875 60.4475 -132.5625 61 C-134.67498833 62.33382513 -134.67498833 62.33382513 -135.375 65.375 C-136.035 65.375 -136.695 65.375 -137.375 65.375 C-137.601875 65.91125 -137.82875 66.4475 -138.0625 67 C-139.80882056 70.16000863 -142.0152849 72.6426983 -144.375 75.375 C-144.045 76.035 -143.715 76.695 -143.375 77.375 C-144.365 77.375 -145.355 77.375 -146.375 77.375 C-146.66375 77.973125 -146.9525 78.57125 -147.25 79.1875 C-148.375 81.375 -148.375 81.375 -150.375 84.375 C-151.035 84.375 -151.695 84.375 -152.375 84.375 C-152.601875 85.014375 -152.82875 85.65375 -153.0625 86.3125 C-154.520343 89.71413368 -156.27773713 92.8476156 -158.08984375 96.0703125 C-163.32085744 105.45115771 -167.42390527 115.39930215 -171.375 125.375 C-171.71402344 126.12523437 -172.05304688 126.87546875 -172.40234375 127.6484375 C-173.72846241 131.36583038 -174.31051467 135.11202745 -174.9375 139 C-176.26001669 147.03005008 -176.26001669 147.03005008 -177.375 150.375 C-177.519375 151.4475 -177.66375 152.52 -177.8125 153.625 C-178.37105281 157.34868537 -179.34191071 160.7591875 -180.375 164.375 C-180.74450465 166.70287927 -181.08852467 169.03545145 -181.375 171.375 C-181.705 171.375 -182.035 171.375 -182.375 171.375 C-182.5855308 164.95381052 -181.8172229 159.05323538 -180.625 152.75 C-180.44308105 151.77651611 -180.26116211 150.80303223 -180.07373047 149.80004883 C-178.60485085 142.15718554 -176.78685353 134.78161403 -174.375 127.375 C-173.99085938 126.11429687 -173.60671875 124.85359375 -173.2109375 123.5546875 C-158.84250315 78.27449623 -124.50620839 41.73888177 -83.125 19.6875 C-66.52912778 11.0892064 -49.68815994 5.93719418 -31.375 2.375 C-30.06450684 2.09462891 -30.06450684 2.09462891 -28.72753906 1.80859375 C-19.19540995 -0.05198217 -9.67450268 -0.02020784 0 0 Z " fill="#A4B0D9" transform="translate(199.375,16.625)"/>
<path d="M0 0 C4.84433704 -0.56092324 8.29707357 -0.94589933 13 0 C16.74975785 3.13532586 19.21754729 7.01250736 22 11 C28.75266466 18.54494481 36.57459203 25.38306135 45 31 C45.42153905 35.68751422 45.1285499 40.28650378 45 45 C40.05 45 35.1 45 30 45 C30 40.05 30 35.1 30 30 C25.05 30 20.1 30 15 30 C15 25.05 15 20.1 15 15 C10.05 15 5.1 15 0 15 C0 10.05 0 5.1 0 0 Z " fill="#FDFEFE" transform="translate(45,315)"/>
<path d="M0 0 C4.95 0 9.9 0 15 0 C15 4.95 15 9.9 15 15 C19.95 15 24.9 15 30 15 C30 19.95 30 24.9 30 30 C34.95 30 39.9 30 45 30 C45 34.95 45 39.9 45 45 C32.53113292 46.19892953 32.53113292 46.19892953 28.60546875 43.125 C26.58891158 40.49649371 24.79751618 37.78214287 23 35 C12.83653263 22.49482792 12.83653263 22.49482792 0 13 C0 8.71 0 4.42 0 0 Z " fill="#FEFEFE" transform="translate(315,45)"/>
<path d="M0 0 C0 7.14561204 -9.09860081 14.23378352 -13.875 19.125 C-48.28944751 52.64351243 -94.68410146 71.78247838 -142.6875 71.4375 C-143.5613031 71.43512329 -144.4351062 71.43274658 -145.33538818 71.43029785 C-158.90121324 71.37265929 -171.83206861 70.48491401 -185 67 C-185.66483398 66.8345166 -186.32966797 66.6690332 -187.01464844 66.49853516 C-191.06510612 65.48540436 -195.03265548 64.29822751 -199 63 C-200.08667969 62.65453125 -201.17335938 62.3090625 -202.29296875 61.953125 C-227.71026471 53.41244558 -249.64188575 39.39938076 -269.375 21.4375 C-269.94114014 20.92461426 -270.50728027 20.41172852 -271.09057617 19.88330078 C-272.43520735 18.63202043 -273.72365785 17.32086571 -275 16 C-275 15.34 -275 14.68 -275 14 C-272.11404754 15.29434348 -270.2391822 16.60047157 -268.125 18.9375 C-258.76629491 28.53566023 -247.43042421 36.10341365 -236 43 C-235.08589355 43.55179932 -235.08589355 43.55179932 -234.15332031 44.11474609 C-228.28529751 47.62664555 -222.52498626 50.93412069 -216.07177734 53.24951172 C-213.99474018 54.00190534 -211.95263718 54.81662394 -209.90625 55.6484375 C-181.02757592 67.11240597 -149.80851791 69.92999831 -119.0625 66.625 C-117.15114258 66.43550781 -117.15114258 66.43550781 -115.20117188 66.2421875 C-113.35555664 66.04882812 -113.35555664 66.04882812 -111.47265625 65.8515625 C-110.37187744 65.73635254 -109.27109863 65.62114258 -108.13696289 65.50244141 C-104.9115394 64.98583143 -102.06967143 64.1034288 -99 63 C-97.56161663 62.55044627 -96.1216165 62.10601672 -94.6796875 61.66796875 C-81.32937034 57.56827596 -68.14743102 53.03272322 -56 46 C-55.67 45.34 -55.34 44.68 -55 44 C-53.68 44 -52.36 44 -51 44 C-50.67 43.34 -50.34 42.68 -50 42 C-49.30132812 41.7215625 -48.60265625 41.443125 -47.8828125 41.15625 C-44.24960973 39.69903046 -41.11430769 37.66492488 -37.875 35.5 C-36.89345947 34.84439087 -36.89345947 34.84439087 -35.89208984 34.17553711 C-25.01716081 27.14417209 -25.01716081 27.14417209 -18 17 C-17.01 16.67 -16.02 16.34 -15 16 C-14.67 15.01 -14.34 14.02 -14 13 C-12.515 12.505 -12.515 12.505 -11 12 C-10.5359375 11.0409375 -10.5359375 11.0409375 -10.0625 10.0625 C-9 8 -9 8 -7.1875 7.125 C-3.91488804 5.44194242 -2.25820186 2.88548015 0 0 Z " fill="#5362A7" transform="translate(343,312)"/>
<path d="M0 0 C5.28 0 10.56 0 16 0 C16.80050781 1.77890625 16.80050781 1.77890625 17.6171875 3.59375 C23.97366866 17.49367905 31.06685985 30.65261554 40.8203125 42.49609375 C42 44 42 44 42 45 C38.04 45 34.08 45 30 45 C30 40.05 30 35.1 30 30 C25.05 30 20.1 30 15 30 C15 25.05 15 20.1 15 15 C10.05 15 5.1 15 0 15 C0 10.05 0 5.1 0 0 Z " fill="#E5E5E7" transform="translate(15,270)"/>
<path d="M0 0 C4.95 0 9.9 0 15 0 C15 4.95 15 9.9 15 15 C19.95 15 24.9 15 30 15 C30 19.95 30 24.9 30 30 C34.95 30 39.9 30 45 30 C45 33.96 45 37.92 45 42 C43.824375 41.21625 42.64875 40.4325 41.4375 39.625 C40.60605469 39.07585938 39.77460938 38.52671875 38.91796875 37.9609375 C36.85965379 36.57770576 34.82226935 35.16307785 32.80078125 33.7265625 C22.47452245 26.47058656 11.48415352 21.18496845 0 16 C0 10.72 0 5.44 0 0 Z " fill="#E5E6E8" transform="translate(270,15)"/>
<path d="M0 0 C10.71428571 -0.14285714 10.71428571 -0.14285714 15 1 C15 3.64 15 6.28 15 9 C19.95 9 24.9 9 30 9 C30 12.3 30 15.6 30 19 C20.1 19 10.2 19 0 19 C0 12.73 0 6.46 0 0 Z " fill="#E7E7E7" transform="translate(165,381)"/>
<path d="M0 0 C0.88912079 -0.00012085 1.77824158 -0.0002417 2.69430542 -0.00036621 C16.41632488 0.02621457 29.34938163 0.96200192 42.6875 4.375 C44.00053368 4.67010662 45.31430823 4.961942 46.62890625 5.25 C81.93997609 13.63778329 122.3347135 36.51754951 142.6875 67.375 C138.62180854 65.80761895 136.22642315 62.88907244 133.4375 59.6875 C129.12372747 54.86592991 124.71093797 50.46817168 119.6875 46.375 C118.95402344 45.75367188 118.22054687 45.13234375 117.46484375 44.4921875 C110.60761862 38.80570812 103.26751975 34.01882032 95.6875 29.375 C94.58535156 28.69308594 93.48320312 28.01117188 92.34765625 27.30859375 C75.78459744 17.43260419 58.41776453 11.6876117 39.6875 7.375 C38.94951172 7.20097656 38.21152344 7.02695312 37.45117188 6.84765625 C13.57751436 1.28709309 -12.29064574 2.26494852 -36.3125 6.375 C-35.9825 5.715 -35.6525 5.055 -35.3125 4.375 C-33.6625 4.375 -32.0125 4.375 -30.3125 4.375 C-30.3125 3.715 -30.3125 3.055 -30.3125 2.375 C-20.28068063 -0.08935365 -10.26005074 -0.02132599 0 0 Z " fill="#9BA6D4" transform="translate(199.3125,16.625)"/>
<path d="M0 0 C0 3.96 0 7.92 0 12 C-4.95 12 -9.9 12 -15 12 C-15 16.95 -15 21.9 -15 27 C-19.95 27 -24.9 27 -30 27 C-30 22.05 -30 17.1 -30 12 C-28.35 11.319375 -26.7 10.63875 -25 9.9375 C-21.21834671 8.36707596 -17.45485338 6.76775385 -13.7109375 5.109375 C-12.63199219 4.63189819 -12.63199219 4.63189819 -11.53125 4.14477539 C-10.10534778 3.51174067 -8.68083794 2.87555932 -7.2578125 2.23608398 C-2.2190294 0 -2.2190294 0 0 0 Z " fill="#FEFEFE" transform="translate(285,363)"/>
<path d="M0 0 C4.95 0 9.9 0 15 0 C15 4.95 15 9.9 15 15 C10.05 15 5.1 15 0 15 C0 19.95 0 24.9 0 30 C-3.96 30 -7.92 30 -12 30 C-10.49992312 25.20870966 -8.61323465 20.69670144 -6.5625 16.125 C-4.18099356 10.80886304 -2.00147928 5.47193419 0 0 Z " fill="#FEFEFE" transform="translate(375,255)"/>
<path d="M0 0 C4.95 0 9.9 0 15 0 C15 4.62 15 9.24 15 14 C14.00742188 14.42410156 13.01484375 14.84820312 11.9921875 15.28515625 C2.83068806 19.22981671 -6.12807277 23.43927491 -15 28 C-15 23.71 -15 19.42 -15 15 C-10.05 15 -5.1 15 0 15 C0 10.05 0 5.1 0 0 Z " fill="#E5E6E7" transform="translate(120,15)"/>
<path d="M0 0 C4.29 0 8.58 0 13 0 C12.49210937 0.99257812 11.98421875 1.98515625 11.4609375 3.0078125 C6.95320073 11.88269387 2.82879534 20.81089118 -1 30 C-5.62 30 -10.24 30 -15 30 C-15 25.05 -15 20.1 -15 15 C-10.05 15 -5.1 15 0 15 C0 10.05 0 5.1 0 0 Z " fill="#E5E6E7" transform="translate(30,105)"/>
<path d="M0 0 C2.97 0 5.94 0 9 0 C9 4.95 9 9.9 9 15 C13.95 15 18.9 15 24 15 C24 19.95 24 24.9 24 30 C19.38 30 14.76 30 10 30 C9.29423828 27.93878906 9.29423828 27.93878906 8.57421875 25.8359375 C7.94552837 24.01555043 7.31661009 22.19524206 6.6875 20.375 C6.37876953 19.47136719 6.07003906 18.56773437 5.75195312 17.63671875 C4.42771787 13.8173455 3.10709137 10.21031489 1.26953125 6.6015625 C0 4 0 4 0 0 Z " fill="#FDFEFE" transform="translate(366,120)"/>
<path d="M0 0 C4.47389436 0.71096771 8.5472615 2.24510447 12.75 3.875 C18.46099675 6.05639214 24.17814561 8.12868966 30 10 C30 14.62 30 19.24 30 24 C25.05 24 20.1 24 15 24 C15 19.05 15 14.1 15 9 C10.05 9 5.1 9 0 9 C0 6.03 0 3.06 0 0 Z " fill="#FDFDFE" transform="translate(120,366)"/>
<path d="M0 0 C4.29 0 8.58 0 13 0 C13 4.95 13 9.9 13 15 C17.95 15 22.9 15 28 15 C28 19.95 28 24.9 28 30 C23.05 30.495 23.05 30.495 18 31 C17.5153125 30.05640625 17.030625 29.1128125 16.53125 28.140625 C12.61713903 20.61280665 8.50820262 13.46500099 3.6640625 6.48828125 C2 4 2 4 0 0 Z " fill="#E5E6E9" transform="translate(347,90)"/>
<path d="M0 0 C4.14335192 2.30186218 8.15062456 4.72886501 12.125 7.3125 C18.23547175 11.23883929 24.56764678 14.6355418 31 18 C30.67 21.3 30.34 24.6 30 28 C25.05 28 20.1 28 15 28 C15 23.05 15 18.1 15 13 C10.05 13 5.1 13 0 13 C0 8.71 0 4.42 0 0 Z " fill="#E4E5E9" transform="translate(90,347)"/>
<path d="M0 0 C2.88595246 1.29434348 4.7608178 2.60047157 6.875 4.9375 C16.23370509 14.53566023 27.56957579 22.10341365 39 29 C39.91410645 29.55179932 39.91410645 29.55179932 40.84667969 30.11474609 C46.71470249 33.62664555 52.47501374 36.93412069 58.92822266 39.24951172 C61.00525982 40.00190534 63.04736282 40.81662394 65.09375 41.6484375 C85.4549944 49.73124155 106.22190287 52.75412011 128 54 C128 54.33 128 54.66 128 55 C125.36 55.33 122.72 55.66 120 56 C120 56.33 120 56.66 120 57 C113.57874912 57.21053282 107.67831908 56.44200188 101.375 55.25 C100.40369141 55.06880615 99.43238281 54.8876123 98.43164062 54.70092773 C90.79189204 53.23452749 83.40010622 51.42152438 76 49 C74.91332031 48.65453125 73.82664062 48.3090625 72.70703125 47.953125 C47.28973529 39.41244558 25.35811425 25.39938076 5.625 7.4375 C5.05885986 6.92461426 4.49271973 6.41172852 3.90942383 5.88330078 C2.56479265 4.63202043 1.27634215 3.32086571 0 2 C0 1.34 0 0.68 0 0 Z " fill="#5D6AAE" transform="translate(68,326)"/>
<path d="M0 0 C0 0.66 0 1.32 0 2 C0.639375 2.144375 1.27875 2.28875 1.9375 2.4375 C4 3 4 3 5 4 C7.34987262 4.23527773 9.70556039 4.41386417 12.0625 4.5625 C13.99802734 4.68818359 13.99802734 4.68818359 15.97265625 4.81640625 C17.47119141 4.90728516 17.47119141 4.90728516 19 5 C19 5.33 19 5.66 19 6 C18.38181396 6.07516846 17.76362793 6.15033691 17.12670898 6.2277832 C-16.84833019 10.38337323 -16.84833019 10.38337323 -48.35546875 23.25 C-48.89816406 23.4975 -49.44085938 23.745 -50 24 C-50.66 23.67 -51.32 23.34 -52 23 C-38.0596952 13.09771653 -17.77880945 -0.85295638 0 0 Z " fill="#717DBA" transform="translate(170,116)"/>
<path d="M0 0 C0.33 0 0.66 0 1 0 C1 4.95 1 9.9 1 15 C-3.95 15 -8.9 15 -14 15 C-14 19.95 -14 24.9 -14 30 C-18.95 30 -23.9 30 -29 30 C-29 27.69 -29 25.38 -29 23 C-26.92654936 21.02423472 -25.2744474 19.7664332 -22.875 18.3125 C-21.59353241 17.47240283 -20.31631443 16.62579494 -19.04296875 15.7734375 C-18.37958496 15.3309668 -17.71620117 14.88849609 -17.03271484 14.43261719 C-13.56433424 11.98817119 -10.38196074 9.2252489 -7.1875 6.4375 C-6.58341309 5.91260986 -5.97932617 5.38771973 -5.35693359 4.84692383 C-2.62353732 2.48302077 -2.62353732 2.48302077 0 0 Z " fill="#E3E5E8" transform="translate(329,330)"/>
<path d="M0 0 C2.31 0 4.62 0 7 0 C7 4.95 7 9.9 7 15 C2.05 15 -2.9 15 -8 15 C-8 19.95 -8 24.9 -8 30 C-12.95 30 -17.9 30 -23 30 C-19.74855879 25.49800447 -16.41574842 21.31010836 -12.625 17.25 C-8.35411649 12.64948454 -5.20696941 7.72518602 -2.1171875 2.2734375 C-1.41851562 1.52320313 -0.71984375 0.77296875 0 0 Z " fill="#E3E5E8" transform="translate(353,300)"/>
<path d="M0 0 C0 3 0 3 -1.6953125 4.98046875 C-10.05079549 12.57025636 -23.13064308 23 -35 23 C-35 22.34 -35 21.68 -35 21 C-34.34 21 -33.68 21 -33 21 C-33.33 20.34 -33.66 19.68 -34 19 C-36.67331214 19.45828208 -38.99618664 19.99837932 -41.5 21.0625 C-44.17773183 22.06664944 -46.16578026 22.16195541 -49 22 C-49.33 21.34 -49.66 20.68 -50 20 C-48.93523437 19.69707031 -47.87046875 19.39414062 -46.7734375 19.08203125 C-30.5613459 14.42610651 -14.16859066 9.4457271 0 0 Z " fill="#5F6EB8" transform="translate(279,245)"/>
<path d="M0 0 C0 2.64 0 5.28 0 8 C-4.95 8 -9.9 8 -15 8 C-15 6.02 -15 4.04 -15 2 C-19.95 2 -24.9 2 -30 2 C-30 3.98 -30 5.96 -30 8 C-34.95 8 -39.9 8 -45 8 C-45 5.69 -45 3.38 -45 1 C-39.39495834 0.85677909 -33.78989648 0.7143864 -28.18481445 0.57275391 C-26.27888422 0.5244779 -24.37295966 0.47597743 -22.46704102 0.42724609 C-19.72413579 0.3571536 -16.98121103 0.28787406 -14.23828125 0.21875 C-13.38913651 0.19687622 -12.53999176 0.17500244 -11.66511536 0.15246582 C-7.77560856 0.05518227 -3.89112805 -0.02767024 0 0 Z " fill="#E3E4EB" transform="translate(225,382)"/>
<path d="M0 0 C0 0.66 0 1.32 0 2 C-0.66 2 -1.32 2 -2 2 C-2.226875 2.53625 -2.45375 3.0725 -2.6875 3.625 C-4.43382056 6.78500863 -6.6402849 9.2676983 -9 12 C-8.505 12.99 -8.505 12.99 -8 14 C-8.99 14 -9.98 14 -11 14 C-11.433125 14.8971875 -11.433125 14.8971875 -11.875 15.8125 C-13 18 -13 18 -15 21 C-15.66 21 -16.32 21 -17 21 C-17.226875 21.639375 -17.45375 22.27875 -17.6875 22.9375 C-19.145343 26.33913368 -20.90273713 29.4726156 -22.71484375 32.6953125 C-27.94585744 42.07615771 -32.04890527 52.02430215 -36 62 C-36.33902344 62.75023437 -36.67804687 63.50046875 -37.02734375 64.2734375 C-38.35346241 67.99083038 -38.93551467 71.73702745 -39.5625 75.625 C-40.88501669 83.65505008 -40.88501669 83.65505008 -42 87 C-42.144375 88.0725 -42.28875 89.145 -42.4375 90.25 C-42.99605281 93.97368537 -43.96691071 97.3841875 -45 101 C-45.36950465 103.32787927 -45.71352467 105.66045145 -46 108 C-46.33 108 -46.66 108 -47 108 C-47.2105308 101.57881052 -46.4422229 95.67823538 -45.25 89.375 C-45.06808105 88.40151611 -44.88616211 87.42803223 -44.69873047 86.42504883 C-43.22985085 78.78218554 -41.41185353 71.40661403 -39 64 C-38.61585937 62.73929688 -38.23171875 61.47859375 -37.8359375 60.1796875 C-31.70925558 40.8722722 -21.48761815 22.89176526 -9 7 C-8.21834473 6.00033203 -8.21834473 6.00033203 -7.42089844 4.98046875 C-6.89786133 4.33722656 -6.37482422 3.69398437 -5.8359375 3.03125 C-5.12896729 2.15823242 -5.12896729 2.15823242 -4.40771484 1.26757812 C-3 0 -3 0 0 0 Z " fill="#A4AFD7" transform="translate(64,80)"/>
<path d="M0 0 C4.95 0 9.9 0 15 0 C15 4.95 15 9.9 15 15 C10.05 15 5.1 15 0 15 C0 10.05 0 5.1 0 0 Z " fill="#FEFEFE" transform="translate(375,375)"/>
<path d="M0 0 C4.95 0 9.9 0 15 0 C15 4.95 15 9.9 15 15 C10.05 15 5.1 15 0 15 C0 10.05 0 5.1 0 0 Z " fill="#E7E7E7" transform="translate(360,375)"/>
<path d="M0 0 C4.95 0 9.9 0 15 0 C15 4.95 15 9.9 15 15 C10.05 15 5.1 15 0 15 C0 10.05 0 5.1 0 0 Z " fill="#FEFEFE" transform="translate(345,375)"/>
<path d="M0 0 C4.95 0 9.9 0 15 0 C15 4.95 15 9.9 15 15 C10.05 15 5.1 15 0 15 C0 10.05 0 5.1 0 0 Z " fill="#E6E6E6" transform="translate(330,375)"/>
<path d="M0 0 C4.95 0 9.9 0 15 0 C15 4.95 15 9.9 15 15 C10.05 15 5.1 15 0 15 C0 10.05 0 5.1 0 0 Z " fill="#FEFEFE" transform="translate(315,375)"/>
<path d="M0 0 C4.95 0 9.9 0 15 0 C15 4.95 15 9.9 15 15 C10.05 15 5.1 15 0 15 C0 10.05 0 5.1 0 0 Z " fill="#E7E7E7" transform="translate(300,375)"/>
<path d="M0 0 C4.95 0 9.9 0 15 0 C15 4.95 15 9.9 15 15 C10.05 15 5.1 15 0 15 C0 10.05 0 5.1 0 0 Z " fill="#FEFEFE" transform="translate(285,375)"/>
<path d="M0 0 C4.95 0 9.9 0 15 0 C15 4.95 15 9.9 15 15 C10.05 15 5.1 15 0 15 C0 10.05 0 5.1 0 0 Z " fill="#E7E7E7" transform="translate(270,375)"/>
<path d="M0 0 C4.95 0 9.9 0 15 0 C15 4.95 15 9.9 15 15 C10.05 15 5.1 15 0 15 C0 10.05 0 5.1 0 0 Z " fill="#E7E7E7" transform="translate(120,375)"/>
<path d="M0 0 C4.95 0 9.9 0 15 0 C15 4.95 15 9.9 15 15 C10.05 15 5.1 15 0 15 C0 10.05 0 5.1 0 0 Z " fill="#FEFEFE" transform="translate(105,375)"/>
<path d="M0 0 C4.95 0 9.9 0 15 0 C15 4.95 15 9.9 15 15 C10.05 15 5.1 15 0 15 C0 10.05 0 5.1 0 0 Z " fill="#E6E6E6" transform="translate(90,375)"/>
<path d="M0 0 C4.95 0 9.9 0 15 0 C15 4.95 15 9.9 15 15 C10.05 15 5.1 15 0 15 C0 10.05 0 5.1 0 0 Z " fill="#FEFEFE" transform="translate(75,375)"/>
<path d="M0 0 C4.95 0 9.9 0 15 0 C15 4.95 15 9.9 15 15 C10.05 15 5.1 15 0 15 C0 10.05 0 5.1 0 0 Z " fill="#E7E7E7" transform="translate(60,375)"/>
<path d="M0 0 C4.95 0 9.9 0 15 0 C15 4.95 15 9.9 15 15 C10.05 15 5.1 15 0 15 C0 10.05 0 5.1 0 0 Z " fill="#FEFEFE" transform="translate(45,375)"/>
<path d="M0 0 C4.95 0 9.9 0 15 0 C15 4.95 15 9.9 15 15 C10.05 15 5.1 15 0 15 C0 10.05 0 5.1 0 0 Z " fill="#E6E6E6" transform="translate(30,375)"/>
<path d="M0 0 C4.95 0 9.9 0 15 0 C15 4.95 15 9.9 15 15 C10.05 15 5.1 15 0 15 C0 10.05 0 5.1 0 0 Z " fill="#FEFEFE" transform="translate(15,375)"/>
<path d="M0 0 C4.95 0 9.9 0 15 0 C15 4.95 15 9.9 15 15 C10.05 15 5.1 15 0 15 C0 10.05 0 5.1 0 0 Z " fill="#E7E7E7" transform="translate(375,360)"/>
<path d="M0 0 C4.95 0 9.9 0 15 0 C15 4.95 15 9.9 15 15 C10.05 15 5.1 15 0 15 C0 10.05 0 5.1 0 0 Z " fill="#FEFEFE" transform="translate(360,360)"/>
<path d="M0 0 C4.95 0 9.9 0 15 0 C15 4.95 15 9.9 15 15 C10.05 15 5.1 15 0 15 C0 10.05 0 5.1 0 0 Z " fill="#E7E7E7" transform="translate(345,360)"/>
<path d="M0 0 C4.95 0 9.9 0 15 0 C15 4.95 15 9.9 15 15 C10.05 15 5.1 15 0 15 C0 10.05 0 5.1 0 0 Z " fill="#FEFEFE" transform="translate(330,360)"/>
<path d="M0 0 C4.95 0 9.9 0 15 0 C15 4.95 15 9.9 15 15 C10.05 15 5.1 15 0 15 C0 10.05 0 5.1 0 0 Z " fill="#E6E6E6" transform="translate(315,360)"/>
<path d="M0 0 C4.95 0 9.9 0 15 0 C15 4.95 15 9.9 15 15 C10.05 15 5.1 15 0 15 C0 10.05 0 5.1 0 0 Z " fill="#FEFEFE" transform="translate(300,360)"/>
<path d="M0 0 C4.95 0 9.9 0 15 0 C15 4.95 15 9.9 15 15 C10.05 15 5.1 15 0 15 C0 10.05 0 5.1 0 0 Z " fill="#FEFEFE" transform="translate(90,360)"/>
<path d="M0 0 C4.95 0 9.9 0 15 0 C15 4.95 15 9.9 15 15 C10.05 15 5.1 15 0 15 C0 10.05 0 5.1 0 0 Z " fill="#E7E7E7" transform="translate(75,360)"/>
<path d="M0 0 C4.95 0 9.9 0 15 0 C15 4.95 15 9.9 15 15 C10.05 15 5.1 15 0 15 C0 10.05 0 5.1 0 0 Z " fill="#FEFEFE" transform="translate(60,360)"/>
<path d="M0 0 C4.95 0 9.9 0 15 0 C15 4.95 15 9.9 15 15 C10.05 15 5.1 15 0 15 C0 10.05 0 5.1 0 0 Z " fill="#E7E7E7" transform="translate(45,360)"/>
<path d="M0 0 C4.95 0 9.9 0 15 0 C15 4.95 15 9.9 15 15 C10.05 15 5.1 15 0 15 C0 10.05 0 5.1 0 0 Z " fill="#FEFEFE" transform="translate(30,360)"/>
<path d="M0 0 C4.95 0 9.9 0 15 0 C15 4.95 15 9.9 15 15 C10.05 15 5.1 15 0 15 C0 10.05 0 5.1 0 0 Z " fill="#E7E7E7" transform="translate(15,360)"/>
<path d="M0 0 C4.95 0 9.9 0 15 0 C15 4.95 15 9.9 15 15 C10.05 15 5.1 15 0 15 C0 10.05 0 5.1 0 0 Z " fill="#FEFEFE" transform="translate(0,360)"/>
<path d="M0 0 C4.95 0 9.9 0 15 0 C15 4.95 15 9.9 15 15 C10.05 15 5.1 15 0 15 C0 10.05 0 5.1 0 0 Z " fill="#FEFEFE" transform="translate(375,345)"/>
<path d="M0 0 C4.95 0 9.9 0 15 0 C15 4.95 15 9.9 15 15 C10.05 15 5.1 15 0 15 C0 10.05 0 5.1 0 0 Z " fill="#E7E7E7" transform="translate(360,345)"/>
<path d="M0 0 C4.95 0 9.9 0 15 0 C15 4.95 15 9.9 15 15 C10.05 15 5.1 15 0 15 C0 10.05 0 5.1 0 0 Z " fill="#FEFEFE" transform="translate(345,345)"/>
<path d="M0 0 C4.95 0 9.9 0 15 0 C15 4.95 15 9.9 15 15 C10.05 15 5.1 15 0 15 C0 10.05 0 5.1 0 0 Z " fill="#FEFEFE" transform="translate(315,345)"/>
<path d="M0 0 C4.95 0 9.9 0 15 0 C15 4.95 15 9.9 15 15 C10.05 15 5.1 15 0 15 C0 10.05 0 5.1 0 0 Z " fill="#E7E7E7" transform="translate(60,345)"/>
<path d="M0 0 C4.95 0 9.9 0 15 0 C15 4.95 15 9.9 15 15 C10.05 15 5.1 15 0 15 C0 10.05 0 5.1 0 0 Z " fill="#FEFEFE" transform="translate(45,345)"/>
<path d="M0 0 C4.95 0 9.9 0 15 0 C15 4.95 15 9.9 15 15 C10.05 15 5.1 15 0 15 C0 10.05 0 5.1 0 0 Z " fill="#E6E6E6" transform="translate(30,345)"/>
<path d="M0 0 C4.95 0 9.9 0 15 0 C15 4.95 15 9.9 15 15 C10.05 15 5.1 15 0 15 C0 10.05 0 5.1 0 0 Z " fill="#FEFEFE" transform="translate(15,345)"/>
<path d="M0 0 C4.95 0 9.9 0 15 0 C15 4.95 15 9.9 15 15 C10.05 15 5.1 15 0 15 C0 10.05 0 5.1 0 0 Z " fill="#E6E6E6" transform="translate(0,345)"/>
<path d="M0 0 C4.95 0 9.9 0 15 0 C15 4.95 15 9.9 15 15 C10.05 15 5.1 15 0 15 C0 10.05 0 5.1 0 0 Z " fill="#E7E7E7" transform="translate(375,330)"/>
<path d="M0 0 C4.95 0 9.9 0 15 0 C15 4.95 15 9.9 15 15 C10.05 15 5.1 15 0 15 C0 10.05 0 5.1 0 0 Z " fill="#FEFEFE" transform="translate(360,330)"/>
<path d="M0 0 C4.95 0 9.9 0 15 0 C15 4.95 15 9.9 15 15 C10.05 15 5.1 15 0 15 C0 10.05 0 5.1 0 0 Z " fill="#E6E6E6" transform="translate(345,330)"/>
<path d="M0 0 C4.95 0 9.9 0 15 0 C15 4.95 15 9.9 15 15 C10.05 15 5.1 15 0 15 C0 10.05 0 5.1 0 0 Z " fill="#FEFEFE" transform="translate(330,330)"/>
<path d="M0 0 C4.95 0 9.9 0 15 0 C15 4.95 15 9.9 15 15 C10.05 15 5.1 15 0 15 C0 10.05 0 5.1 0 0 Z " fill="#E6E6E6" transform="translate(45,330)"/>
<path d="M0 0 C4.95 0 9.9 0 15 0 C15 4.95 15 9.9 15 15 C10.05 15 5.1 15 0 15 C0 10.05 0 5.1 0 0 Z " fill="#FEFEFE" transform="translate(30,330)"/>
<path d="M0 0 C4.95 0 9.9 0 15 0 C15 4.95 15 9.9 15 15 C10.05 15 5.1 15 0 15 C0 10.05 0 5.1 0 0 Z " fill="#E7E7E7" transform="translate(15,330)"/>
<path d="M0 0 C4.95 0 9.9 0 15 0 C15 4.95 15 9.9 15 15 C10.05 15 5.1 15 0 15 C0 10.05 0 5.1 0 0 Z " fill="#FEFEFE" transform="translate(0,330)"/>
<path d="M0 0 C4.95 0 9.9 0 15 0 C15 4.95 15 9.9 15 15 C10.05 15 5.1 15 0 15 C0 10.05 0 5.1 0 0 Z " fill="#FEFEFE" transform="translate(375,315)"/>
<path d="M0 0 C4.95 0 9.9 0 15 0 C15 4.95 15 9.9 15 15 C10.05 15 5.1 15 0 15 C0 10.05 0 5.1 0 0 Z " fill="#FEFEFE" transform="translate(345,315)"/>
<path d="M0 0 C4.95 0 9.9 0 15 0 C15 4.95 15 9.9 15 15 C10.05 15 5.1 15 0 15 C0 10.05 0 5.1 0 0 Z " fill="#E6E6E6" transform="translate(30,315)"/>
<path d="M0 0 C4.95 0 9.9 0 15 0 C15 4.95 15 9.9 15 15 C10.05 15 5.1 15 0 15 C0 10.05 0 5.1 0 0 Z " fill="#FEFEFE" transform="translate(15,315)"/>
<path d="M0 0 C4.95 0 9.9 0 15 0 C15 4.95 15 9.9 15 15 C10.05 15 5.1 15 0 15 C0 10.05 0 5.1 0 0 Z " fill="#E7E7E7" transform="translate(0,315)"/>
<path d="M0 0 C4.95 0 9.9 0 15 0 C15 4.95 15 9.9 15 15 C10.05 15 5.1 15 0 15 C0 10.05 0 5.1 0 0 Z " fill="#E7E7E7" transform="translate(375,300)"/>
<path d="M0 0 C4.95 0 9.9 0 15 0 C15 4.95 15 9.9 15 15 C10.05 15 5.1 15 0 15 C0 10.05 0 5.1 0 0 Z " fill="#FEFEFE" transform="translate(360,300)"/>
<path d="M0 0 C4.95 0 9.9 0 15 0 C15 4.95 15 9.9 15 15 C10.05 15 5.1 15 0 15 C0 10.05 0 5.1 0 0 Z " fill="#FEFEFE" transform="translate(30,300)"/>
<path d="M0 0 C4.95 0 9.9 0 15 0 C15 4.95 15 9.9 15 15 C10.05 15 5.1 15 0 15 C0 10.05 0 5.1 0 0 Z " fill="#E7E7E7" transform="translate(15,300)"/>
<path d="M0 0 C4.95 0 9.9 0 15 0 C15 4.95 15 9.9 15 15 C10.05 15 5.1 15 0 15 C0 10.05 0 5.1 0 0 Z " fill="#FEFEFE" transform="translate(0,300)"/>
<path d="M0 0 C4.95 0 9.9 0 15 0 C15 4.95 15 9.9 15 15 C10.05 15 5.1 15 0 15 C0 10.05 0 5.1 0 0 Z " fill="#FEFEFE" transform="translate(375,285)"/>
<path d="M0 0 C4.95 0 9.9 0 15 0 C15 4.95 15 9.9 15 15 C10.05 15 5.1 15 0 15 C0 10.05 0 5.1 0 0 Z " fill="#FEFEFE" transform="translate(15,285)"/>
<path d="M0 0 C4.95 0 9.9 0 15 0 C15 4.95 15 9.9 15 15 C10.05 15 5.1 15 0 15 C0 10.05 0 5.1 0 0 Z " fill="#E7E7E7" transform="translate(0,285)"/>
<path d="M0 0 C4.95 0 9.9 0 15 0 C15 4.95 15 9.9 15 15 C10.05 15 5.1 15 0 15 C0 10.05 0 5.1 0 0 Z " fill="#E7E7E7" transform="translate(375,270)"/>
<path d="M0 0 C4.95 0 9.9 0 15 0 C15 4.95 15 9.9 15 15 C10.05 15 5.1 15 0 15 C0 10.05 0 5.1 0 0 Z " fill="#FEFEFE" transform="translate(0,270)"/>
<path d="M0 0 C4.95 0 9.9 0 15 0 C15 4.95 15 9.9 15 15 C10.05 15 5.1 15 0 15 C0 10.05 0 5.1 0 0 Z " fill="#E6E6E6" transform="translate(0,255)"/>
<path d="M0 0 C4.95 0 9.9 0 15 0 C15 4.95 15 9.9 15 15 C10.05 15 5.1 15 0 15 C0 10.05 0 5.1 0 0 Z " fill="#FEFEFE" transform="translate(0,240)"/>
<path d="M0 0 C4.95 0 9.9 0 15 0 C15 4.95 15 9.9 15 15 C10.05 15 5.1 15 0 15 C0 10.05 0 5.1 0 0 Z " fill="#E6E6E6" transform="translate(0,225)"/>
<path d="M0 0 C4.95 0 9.9 0 15 0 C15 4.95 15 9.9 15 15 C10.05 15 5.1 15 0 15 C0 10.05 0 5.1 0 0 Z " fill="#FEFEFE" transform="translate(0,210)"/>
<path d="M0 0 C4.95 0 9.9 0 15 0 C15 4.95 15 9.9 15 15 C10.05 15 5.1 15 0 15 C0 10.05 0 5.1 0 0 Z " fill="#FEFEFE" transform="translate(0,180)"/>
<path d="M0 0 C4.95 0 9.9 0 15 0 C15 4.95 15 9.9 15 15 C10.05 15 5.1 15 0 15 C0 10.05 0 5.1 0 0 Z " fill="#E6E6E6" transform="translate(0,165)"/>
<path d="M0 0 C4.95 0 9.9 0 15 0 C15 4.95 15 9.9 15 15 C10.05 15 5.1 15 0 15 C0 10.05 0 5.1 0 0 Z " fill="#FEFEFE" transform="translate(0,150)"/>
<path d="M0 0 C4.95 0 9.9 0 15 0 C15 4.95 15 9.9 15 15 C10.05 15 5.1 15 0 15 C0 10.05 0 5.1 0 0 Z " fill="#E7E7E7" transform="translate(0,135)"/>
<path d="M0 0 C4.95 0 9.9 0 15 0 C15 4.95 15 9.9 15 15 C10.05 15 5.1 15 0 15 C0 10.05 0 5.1 0 0 Z " fill="#E7E7E7" transform="translate(375,120)"/>
<path d="M0 0 C4.95 0 9.9 0 15 0 C15 4.95 15 9.9 15 15 C10.05 15 5.1 15 0 15 C0 10.05 0 5.1 0 0 Z " fill="#FEFEFE" transform="translate(0,120)"/>
<path d="M0 0 C4.95 0 9.9 0 15 0 C15 4.95 15 9.9 15 15 C10.05 15 5.1 15 0 15 C0 10.05 0 5.1 0 0 Z " fill="#FEFEFE" transform="translate(375,105)"/>
<path d="M0 0 C4.95 0 9.9 0 15 0 C15 4.95 15 9.9 15 15 C10.05 15 5.1 15 0 15 C0 10.05 0 5.1 0 0 Z " fill="#FEFEFE" transform="translate(15,105)"/>
<path d="M0 0 C4.95 0 9.9 0 15 0 C15 4.95 15 9.9 15 15 C10.05 15 5.1 15 0 15 C0 10.05 0 5.1 0 0 Z " fill="#E6E6E6" transform="translate(0,105)"/>
<path d="M0 0 C4.95 0 9.9 0 15 0 C15 4.95 15 9.9 15 15 C10.05 15 5.1 15 0 15 C0 10.05 0 5.1 0 0 Z " fill="#E7E7E7" transform="translate(375,90)"/>
<path d="M0 0 C4.95 0 9.9 0 15 0 C15 4.95 15 9.9 15 15 C10.05 15 5.1 15 0 15 C0 10.05 0 5.1 0 0 Z " fill="#FEFEFE" transform="translate(360,90)"/>
<path d="M0 0 C4.95 0 9.9 0 15 0 C15 4.95 15 9.9 15 15 C10.05 15 5.1 15 0 15 C0 10.05 0 5.1 0 0 Z " fill="#E7E7E7" transform="translate(15,90)"/>
<path d="M0 0 C4.95 0 9.9 0 15 0 C15 4.95 15 9.9 15 15 C10.05 15 5.1 15 0 15 C0 10.05 0 5.1 0 0 Z " fill="#FEFEFE" transform="translate(0,90)"/>
<path d="M0 0 C4.95 0 9.9 0 15 0 C15 4.95 15 9.9 15 15 C10.05 15 5.1 15 0 15 C0 10.05 0 5.1 0 0 Z " fill="#FEFEFE" transform="translate(375,75)"/>
<path d="M0 0 C4.95 0 9.9 0 15 0 C15 4.95 15 9.9 15 15 C10.05 15 5.1 15 0 15 C0 10.05 0 5.1 0 0 Z " fill="#E7E7E7" transform="translate(360,75)"/>
<path d="M0 0 C4.95 0 9.9 0 15 0 C15 4.95 15 9.9 15 15 C10.05 15 5.1 15 0 15 C0 10.05 0 5.1 0 0 Z " fill="#E7E7E7" transform="translate(30,75)"/>
<path d="M0 0 C4.95 0 9.9 0 15 0 C15 4.95 15 9.9 15 15 C10.05 15 5.1 15 0 15 C0 10.05 0 5.1 0 0 Z " fill="#FEFEFE" transform="translate(15,75)"/>
<path d="M0 0 C4.95 0 9.9 0 15 0 C15 4.95 15 9.9 15 15 C10.05 15 5.1 15 0 15 C0 10.05 0 5.1 0 0 Z " fill="#E7E7E7" transform="translate(0,75)"/>
<path d="M0 0 C4.95 0 9.9 0 15 0 C15 4.95 15 9.9 15 15 C10.05 15 5.1 15 0 15 C0 10.05 0 5.1 0 0 Z " fill="#E7E7E7" transform="translate(375,60)"/>
<path d="M0 0 C4.95 0 9.9 0 15 0 C15 4.95 15 9.9 15 15 C10.05 15 5.1 15 0 15 C0 10.05 0 5.1 0 0 Z " fill="#FEFEFE" transform="translate(360,60)"/>
<path d="M0 0 C4.95 0 9.9 0 15 0 C15 4.95 15 9.9 15 15 C10.05 15 5.1 15 0 15 C0 10.05 0 5.1 0 0 Z " fill="#E6E6E6" transform="translate(345,60)"/>
<path d="M0 0 C4.95 0 9.9 0 15 0 C15 4.95 15 9.9 15 15 C10.05 15 5.1 15 0 15 C0 10.05 0 5.1 0 0 Z " fill="#E6E6E6" transform="translate(45,60)"/>
<path d="M0 0 C4.95 0 9.9 0 15 0 C15 4.95 15 9.9 15 15 C10.05 15 5.1 15 0 15 C0 10.05 0 5.1 0 0 Z " fill="#FEFEFE" transform="translate(30,60)"/>
<path d="M0 0 C4.95 0 9.9 0 15 0 C15 4.95 15 9.9 15 15 C10.05 15 5.1 15 0 15 C0 10.05 0 5.1 0 0 Z " fill="#E7E7E7" transform="translate(15,60)"/>
<path d="M0 0 C4.95 0 9.9 0 15 0 C15 4.95 15 9.9 15 15 C10.05 15 5.1 15 0 15 C0 10.05 0 5.1 0 0 Z " fill="#FEFEFE" transform="translate(0,60)"/>
<path d="M0 0 C4.95 0 9.9 0 15 0 C15 4.95 15 9.9 15 15 C10.05 15 5.1 15 0 15 C0 10.05 0 5.1 0 0 Z " fill="#FEFEFE" transform="translate(375,45)"/>
<path d="M0 0 C4.95 0 9.9 0 15 0 C15 4.95 15 9.9 15 15 C10.05 15 5.1 15 0 15 C0 10.05 0 5.1 0 0 Z " fill="#E7E7E7" transform="translate(360,45)"/>
<path d="M0 0 C4.95 0 9.9 0 15 0 C15 4.95 15 9.9 15 15 C10.05 15 5.1 15 0 15 C0 10.05 0 5.1 0 0 Z " fill="#FEFEFE" transform="translate(345,45)"/>
<path d="M0 0 C4.95 0 9.9 0 15 0 C15 4.95 15 9.9 15 15 C10.05 15 5.1 15 0 15 C0 10.05 0 5.1 0 0 Z " fill="#E6E6E6" transform="translate(330,45)"/>
<path d="M0 0 C4.95 0 9.9 0 15 0 C15 4.95 15 9.9 15 15 C10.05 15 5.1 15 0 15 C0 10.05 0 5.1 0 0 Z " fill="#E6E6E6" transform="translate(60,45)"/>
<path d="M0 0 C4.95 0 9.9 0 15 0 C15 4.95 15 9.9 15 15 C10.05 15 5.1 15 0 15 C0 10.05 0 5.1 0 0 Z " fill="#FEFEFE" transform="translate(45,45)"/>
<path d="M0 0 C4.95 0 9.9 0 15 0 C15 4.95 15 9.9 15 15 C10.05 15 5.1 15 0 15 C0 10.05 0 5.1 0 0 Z " fill="#E7E7E7" transform="translate(30,45)"/>
<path d="M0 0 C4.95 0 9.9 0 15 0 C15 4.95 15 9.9 15 15 C10.05 15 5.1 15 0 15 C0 10.05 0 5.1 0 0 Z " fill="#FEFEFE" transform="translate(15,45)"/>
<path d="M0 0 C4.95 0 9.9 0 15 0 C15 4.95 15 9.9 15 15 C10.05 15 5.1 15 0 15 C0 10.05 0 5.1 0 0 Z " fill="#E6E6E6" transform="translate(0,45)"/>
<path d="M0 0 C4.95 0 9.9 0 15 0 C15 4.95 15 9.9 15 15 C10.05 15 5.1 15 0 15 C0 10.05 0 5.1 0 0 Z " fill="#E7E7E7" transform="translate(375,30)"/>
<path d="M0 0 C4.95 0 9.9 0 15 0 C15 4.95 15 9.9 15 15 C10.05 15 5.1 15 0 15 C0 10.05 0 5.1 0 0 Z " fill="#FEFEFE" transform="translate(360,30)"/>
<path d="M0 0 C4.95 0 9.9 0 15 0 C15 4.95 15 9.9 15 15 C10.05 15 5.1 15 0 15 C0 10.05 0 5.1 0 0 Z " fill="#E6E6E6" transform="translate(345,30)"/>
<path d="M0 0 C4.95 0 9.9 0 15 0 C15 4.95 15 9.9 15 15 C10.05 15 5.1 15 0 15 C0 10.05 0 5.1 0 0 Z " fill="#FEFEFE" transform="translate(330,30)"/>
<path d="M0 0 C4.95 0 9.9 0 15 0 C15 4.95 15 9.9 15 15 C10.05 15 5.1 15 0 15 C0 10.05 0 5.1 0 0 Z " fill="#E7E7E7" transform="translate(315,30)"/>
<path d="M0 0 C4.95 0 9.9 0 15 0 C15 4.95 15 9.9 15 15 C10.05 15 5.1 15 0 15 C0 10.05 0 5.1 0 0 Z " fill="#FEFEFE" transform="translate(300,30)"/>
<path d="M0 0 C4.95 0 9.9 0 15 0 C15 4.95 15 9.9 15 15 C10.05 15 5.1 15 0 15 C0 10.05 0 5.1 0 0 Z " fill="#E7E7E7" transform="translate(75,30)"/>
<path d="M0 0 C4.95 0 9.9 0 15 0 C15 4.95 15 9.9 15 15 C10.05 15 5.1 15 0 15 C0 10.05 0 5.1 0 0 Z " fill="#FEFEFE" transform="translate(60,30)"/>
<path d="M0 0 C4.95 0 9.9 0 15 0 C15 4.95 15 9.9 15 15 C10.05 15 5.1 15 0 15 C0 10.05 0 5.1 0 0 Z " fill="#E6E6E6" transform="translate(45,30)"/>
<path d="M0 0 C4.95 0 9.9 0 15 0 C15 4.95 15 9.9 15 15 C10.05 15 5.1 15 0 15 C0 10.05 0 5.1 0 0 Z " fill="#FEFEFE" transform="translate(30,30)"/>
<path d="M0 0 C4.95 0 9.9 0 15 0 C15 4.95 15 9.9 15 15 C10.05 15 5.1 15 0 15 C0 10.05 0 5.1 0 0 Z " fill="#E6E6E6" transform="translate(15,30)"/>
<path d="M0 0 C4.95 0 9.9 0 15 0 C15 4.95 15 9.9 15 15 C10.05 15 5.1 15 0 15 C0 10.05 0 5.1 0 0 Z " fill="#FEFEFE" transform="translate(0,30)"/>
<path d="M0 0 C4.95 0 9.9 0 15 0 C15 4.95 15 9.9 15 15 C10.05 15 5.1 15 0 15 C0 10.05 0 5.1 0 0 Z " fill="#FEFEFE" transform="translate(375,15)"/>
<path d="M0 0 C4.95 0 9.9 0 15 0 C15 4.95 15 9.9 15 15 C10.05 15 5.1 15 0 15 C0 10.05 0 5.1 0 0 Z " fill="#E7E7E7" transform="translate(360,15)"/>
<path d="M0 0 C4.95 0 9.9 0 15 0 C15 4.95 15 9.9 15 15 C10.05 15 5.1 15 0 15 C0 10.05 0 5.1 0 0 Z " fill="#FEFEFE" transform="translate(345,15)"/>
<path d="M0 0 C4.95 0 9.9 0 15 0 C15 4.95 15 9.9 15 15 C10.05 15 5.1 15 0 15 C0 10.05 0 5.1 0 0 Z " fill="#E6E6E6" transform="translate(330,15)"/>
<path d="M0 0 C4.95 0 9.9 0 15 0 C15 4.95 15 9.9 15 15 C10.05 15 5.1 15 0 15 C0 10.05 0 5.1 0 0 Z " fill="#FEFEFE" transform="translate(315,15)"/>
<path d="M0 0 C4.95 0 9.9 0 15 0 C15 4.95 15 9.9 15 15 C10.05 15 5.1 15 0 15 C0 10.05 0 5.1 0 0 Z " fill="#E7E7E7" transform="translate(300,15)"/>
<path d="M0 0 C4.95 0 9.9 0 15 0 C15 4.95 15 9.9 15 15 C10.05 15 5.1 15 0 15 C0 10.05 0 5.1 0 0 Z " fill="#FEFEFE" transform="translate(285,15)"/>
<path d="M0 0 C4.95 0 9.9 0 15 0 C15 4.95 15 9.9 15 15 C10.05 15 5.1 15 0 15 C0 10.05 0 5.1 0 0 Z " fill="#FEFEFE" transform="translate(105,15)"/>
<path d="M0 0 C4.95 0 9.9 0 15 0 C15 4.95 15 9.9 15 15 C10.05 15 5.1 15 0 15 C0 10.05 0 5.1 0 0 Z " fill="#E6E6E6" transform="translate(90,15)"/>
<path d="M0 0 C4.95 0 9.9 0 15 0 C15 4.95 15 9.9 15 15 C10.05 15 5.1 15 0 15 C0 10.05 0 5.1 0 0 Z " fill="#FEFEFE" transform="translate(75,15)"/>
<path d="M0 0 C4.95 0 9.9 0 15 0 C15 4.95 15 9.9 15 15 C10.05 15 5.1 15 0 15 C0 10.05 0 5.1 0 0 Z " fill="#E7E7E7" transform="translate(60,15)"/>
<path d="M0 0 C4.95 0 9.9 0 15 0 C15 4.95 15 9.9 15 15 C10.05 15 5.1 15 0 15 C0 10.05 0 5.1 0 0 Z " fill="#FEFEFE" transform="translate(45,15)"/>
<path d="M0 0 C4.95 0 9.9 0 15 0 C15 4.95 15 9.9 15 15 C10.05 15 5.1 15 0 15 C0 10.05 0 5.1 0 0 Z " fill="#E6E6E6" transform="translate(30,15)"/>
<path d="M0 0 C4.95 0 9.9 0 15 0 C15 4.95 15 9.9 15 15 C10.05 15 5.1 15 0 15 C0 10.05 0 5.1 0 0 Z " fill="#FEFEFE" transform="translate(15,15)"/>
<path d="M0 0 C4.95 0 9.9 0 15 0 C15 4.95 15 9.9 15 15 C10.05 15 5.1 15 0 15 C0 10.05 0 5.1 0 0 Z " fill="#E6E6E6" transform="translate(0,15)"/>
<path d="M0 0 C4.95 0 9.9 0 15 0 C15 4.95 15 9.9 15 15 C10.05 15 5.1 15 0 15 C0 10.05 0 5.1 0 0 Z " fill="#FEFEFE" transform="translate(360,0)"/>
<path d="M0 0 C4.95 0 9.9 0 15 0 C15 4.95 15 9.9 15 15 C10.05 15 5.1 15 0 15 C0 10.05 0 5.1 0 0 Z " fill="#E7E7E7" transform="translate(345,0)"/>
<path d="M0 0 C4.95 0 9.9 0 15 0 C15 4.95 15 9.9 15 15 C10.05 15 5.1 15 0 15 C0 10.05 0 5.1 0 0 Z " fill="#FEFEFE" transform="translate(330,0)"/>
<path d="M0 0 C4.95 0 9.9 0 15 0 C15 4.95 15 9.9 15 15 C10.05 15 5.1 15 0 15 C0 10.05 0 5.1 0 0 Z " fill="#E7E7E7" transform="translate(315,0)"/>
<path d="M0 0 C4.95 0 9.9 0 15 0 C15 4.95 15 9.9 15 15 C10.05 15 5.1 15 0 15 C0 10.05 0 5.1 0 0 Z " fill="#FEFEFE" transform="translate(300,0)"/>
<path d="M0 0 C4.95 0 9.9 0 15 0 C15 4.95 15 9.9 15 15 C10.05 15 5.1 15 0 15 C0 10.05 0 5.1 0 0 Z " fill="#E7E7E7" transform="translate(285,0)"/>
<path d="M0 0 C4.95 0 9.9 0 15 0 C15 4.95 15 9.9 15 15 C10.05 15 5.1 15 0 15 C0 10.05 0 5.1 0 0 Z " fill="#FEFEFE" transform="translate(270,0)"/>
<path d="M0 0 C4.95 0 9.9 0 15 0 C15 4.95 15 9.9 15 15 C10.05 15 5.1 15 0 15 C0 10.05 0 5.1 0 0 Z " fill="#E7E7E7" transform="translate(255,0)"/>
<path d="M0 0 C4.95 0 9.9 0 15 0 C15 4.95 15 9.9 15 15 C10.05 15 5.1 15 0 15 C0 10.05 0 5.1 0 0 Z " fill="#FEFEFE" transform="translate(240,0)"/>
<path d="M0 0 C4.95 0 9.9 0 15 0 C15 4.95 15 9.9 15 15 C10.05 15 5.1 15 0 15 C0 10.05 0 5.1 0 0 Z " fill="#E7E7E7" transform="translate(225,0)"/>
<path d="M0 0 C4.95 0 9.9 0 15 0 C15 4.95 15 9.9 15 15 C10.05 15 5.1 15 0 15 C0 10.05 0 5.1 0 0 Z " fill="#FEFEFE" transform="translate(210,0)"/>
<path d="M0 0 C4.95 0 9.9 0 15 0 C15 4.95 15 9.9 15 15 C10.05 15 5.1 15 0 15 C0 10.05 0 5.1 0 0 Z " fill="#E7E7E7" transform="translate(195,0)"/>
<path d="M0 0 C4.95 0 9.9 0 15 0 C15 4.95 15 9.9 15 15 C10.05 15 5.1 15 0 15 C0 10.05 0 5.1 0 0 Z " fill="#FEFEFE" transform="translate(180,0)"/>
<path d="M0 0 C4.95 0 9.9 0 15 0 C15 4.95 15 9.9 15 15 C10.05 15 5.1 15 0 15 C0 10.05 0 5.1 0 0 Z " fill="#E7E7E7" transform="translate(165,0)"/>
<path d="M0 0 C4.95 0 9.9 0 15 0 C15 4.95 15 9.9 15 15 C10.05 15 5.1 15 0 15 C0 10.05 0 5.1 0 0 Z " fill="#FEFEFE" transform="translate(150,0)"/>
<path d="M0 0 C4.95 0 9.9 0 15 0 C15 4.95 15 9.9 15 15 C10.05 15 5.1 15 0 15 C0 10.05 0 5.1 0 0 Z " fill="#E7E7E7" transform="translate(135,0)"/>
<path d="M0 0 C4.95 0 9.9 0 15 0 C15 4.95 15 9.9 15 15 C10.05 15 5.1 15 0 15 C0 10.05 0 5.1 0 0 Z " fill="#FEFEFE" transform="translate(120,0)"/>
<path d="M0 0 C4.95 0 9.9 0 15 0 C15 4.95 15 9.9 15 15 C10.05 15 5.1 15 0 15 C0 10.05 0 5.1 0 0 Z " fill="#E7E7E7" transform="translate(105,0)"/>
<path d="M0 0 C4.95 0 9.9 0 15 0 C15 4.95 15 9.9 15 15 C10.05 15 5.1 15 0 15 C0 10.05 0 5.1 0 0 Z " fill="#FEFEFE" transform="translate(90,0)"/>
<path d="M0 0 C4.95 0 9.9 0 15 0 C15 4.95 15 9.9 15 15 C10.05 15 5.1 15 0 15 C0 10.05 0 5.1 0 0 Z " fill="#E7E7E7" transform="translate(75,0)"/>
<path d="M0 0 C4.95 0 9.9 0 15 0 C15 4.95 15 9.9 15 15 C10.05 15 5.1 15 0 15 C0 10.05 0 5.1 0 0 Z " fill="#FEFEFE" transform="translate(60,0)"/>
<path d="M0 0 C4.95 0 9.9 0 15 0 C15 4.95 15 9.9 15 15 C10.05 15 5.1 15 0 15 C0 10.05 0 5.1 0 0 Z " fill="#E7E7E7" transform="translate(45,0)"/>
<path d="M0 0 C4.95 0 9.9 0 15 0 C15 4.95 15 9.9 15 15 C10.05 15 5.1 15 0 15 C0 10.05 0 5.1 0 0 Z " fill="#FEFEFE" transform="translate(30,0)"/>
<path d="M0 0 C4.95 0 9.9 0 15 0 C15 4.95 15 9.9 15 15 C10.05 15 5.1 15 0 15 C0 10.05 0 5.1 0 0 Z " fill="#FEFEFE" transform="translate(0,0)"/>
<path d="M0 0 C12.75 -0.125 12.75 -0.125 15 1 C15 5.62 15 10.24 15 15 C10.05 15 5.1 15 0 15 C0 10.05 0 5.1 0 0 Z " fill="#FEFEFE" transform="translate(75,345)"/>
<path d="M0 0 C4.95 0 9.9 0 15 0 C15 4.95 15 9.9 15 15 C10.38 15 5.76 15 1 15 C-1.13079691 10.73840618 -0.04502317 4.59236298 0 0 Z " fill="#FEFEFE" transform="translate(345,75)"/>
<path d="M0 0 C4.95 0 9.9 0 15 0 C15.1953125 9.9609375 15.1953125 9.9609375 15 13 C13 15 13 15 9.9609375 15.1953125 C6.640625 15.13020833 3.3203125 15.06510417 0 15 C0 10.05 0 5.1 0 0 Z " fill="#FEFEFE" transform="translate(90,30)"/>
<path d="M0 0 C0.33 0.66 0.66 1.32 1 2 C4.3 2 7.6 2 11 2 C11 6.95 11 11.9 11 17 C6.05 17 1.1 17 -4 17 C-2.68 11.39 -1.36 5.78 0 0 Z " fill="#E4E5E8" transform="translate(379,238)"/>
<path d="M0 0 C0 4.95 0 9.9 0 15 C-4.95 15 -9.9 15 -15 15 C-15 11.37 -15 7.74 -15 4 C-12.87607494 3.3299166 -10.75082476 2.66403203 -8.625 2 C-7.44164062 1.62875 -6.25828125 1.2575 -5.0390625 0.875 C-2 0 -2 0 0 0 Z " fill="#E4E5E8" transform="translate(255,375)"/>
<path d="M0 0 C4.95 0 9.9 0 15 0 C15 4.95 15 9.9 15 15 C11.16195111 14.23239022 8.23779856 13.40495674 4.6875 11.9375 C3.36298828 11.39416016 3.36298828 11.39416016 2.01171875 10.83984375 C1.34785156 10.56269531 0.68398437 10.28554688 0 10 C0 6.7 0 3.4 0 0 Z " fill="#FDFDFE" transform="translate(255,15)"/>
<path d="M0 0 C3.3 0 6.6 0 10 0 C10.83986084 1.93467942 11.67168027 3.87285129 12.5 5.8125 C12.9640625 6.89144531 13.428125 7.97039062 13.90625 9.08203125 C15 12 15 12 15 15 C10.05 15 5.1 15 0 15 C0 10.05 0 5.1 0 0 Z " fill="#FDFDFE" transform="translate(15,255)"/>
<path d="M0 0 C5.41654102 0.56348931 9.92990088 1.88993485 14.9375 4 C15.66461182 4.30325195 16.39172363 4.60650391 17.14086914 4.91894531 C22.56622503 7.24601897 27.7810299 9.87866965 32.9375 12.75 C33.6173999 13.12640625 34.2972998 13.5028125 34.99780273 13.890625 C38.15313216 15.70268445 39.94963467 16.92445201 42 20 C37.63802916 18.57244591 33.29236573 17.11014771 28.96875 15.5703125 C27.89125488 15.18697754 27.89125488 15.18697754 26.79199219 14.79589844 C25.29939235 14.26306056 23.80785897 13.72722632 22.31738281 13.18847656 C18.34147142 11.7658705 14.42975062 10.58569181 10.3125 9.625 C5.03387406 8.15420337 2.67736654 4.5819972 0 0 Z " fill="#5C67A6" transform="translate(233,118)"/>
<path d="M0 0 C4.29 0 8.58 0 13 0 C13 4.95 13 9.9 13 15 C9.97265625 15.24414062 9.97265625 15.24414062 6.9453125 15.48828125 C4.60480784 15.87393036 4.60480784 15.87393036 3 19 C2.49521515 16.58424393 1.99602358 14.16755639 1.5 11.75 C1.35691406 11.06808594 1.21382813 10.38617188 1.06640625 9.68359375 C0.38748951 6.35366879 0 3.41667449 0 0 Z " fill="#E5E5E9" transform="translate(377,150)"/>
<path d="M0 0 C6.08233706 0.67581523 12.01314152 1.73638028 18 3 C17.01 3.33 16.02 3.66 15 4 C15 6.97 15 9.94 15 13 C10.05 13 5.1 13 0 13 C0 8.71 0 4.42 0 0 Z " fill="#E4E5E9" transform="translate(150,377)"/>
<path d="M0 0 C0 3.96 0 7.92 0 12 C-9.57 12 -19.14 12 -29 12 C-26.4284518 10.28563453 -24.31652598 9.23850628 -21.47265625 8.125 C-20.16071289 7.60679687 -20.16071289 7.60679687 -18.82226562 7.078125 C-17.45618164 6.54445313 -17.45618164 6.54445313 -16.0625 6 C-14.26109128 5.29326396 -12.46028684 4.58498528 -10.66015625 3.875 C-9.46338257 3.40707031 -9.46338257 3.40707031 -8.24243164 2.9296875 C-5.98432592 2.02986732 -5.98432592 2.02986732 -3.83374023 0.8828125 C-2 0 -2 0 0 0 Z " fill="#FBFCFE" transform="translate(285,363)"/>
<path d="M0 0 C0.33 0 0.66 0 1 0 C1 9.57 1 19.14 1 29 C-2.96 29 -6.92 29 -11 29 C-9.27156762 23.46037422 -6.9638527 18.28113848 -4.56640625 13.00976562 C-2.65334252 8.72795132 -1.18377141 4.53976335 0 0 Z " fill="#FBFCFE" transform="translate(374,256)"/>
<path d="M0 0 C4.29 0 8.58 0 13 0 C11.91266548 5.12600561 10.77362508 10.05918728 9 15 C6.03 15 3.06 15 0 15 C0 10.05 0 5.1 0 0 Z " fill="#FDFEFE" transform="translate(15,135)"/>
<path d="M0 0 C4.95 0 9.9 0 15 0 C15 2.97 15 5.94 15 9 C12.87607494 9.6700834 10.75082476 10.33596797 8.625 11 C7.44164062 11.37125 6.25828125 11.7425 5.0390625 12.125 C2 13 2 13 0 13 C0 8.71 0 4.42 0 0 Z " fill="#FDFEFE" transform="translate(135,15)"/>
<path d="M0 0 C3.44811731 1.26968058 6.57128014 2.84547695 9.75952148 4.66601562 C19.37480085 10.11358893 29.51046285 13.61514095 40 17 C35.37411598 18.29202804 32.59980309 17.30327754 28 16 C28.33 17.32 28.66 18.64 29 20 C16.99724253 18.49965532 7.18353697 9.07394143 0 0 Z " fill="#606BB2" transform="translate(120,245)"/>
<path d="M0 0 C4.95 0 9.9 0 15 0 C15 3.3 15 6.6 15 10 C10.05 10 5.1 10 0 10 C0 6.7 0 3.4 0 0 Z " fill="#FEFEFE" transform="translate(360,390)"/>
<path d="M0 0 C4.95 0 9.9 0 15 0 C15 3.3 15 6.6 15 10 C10.05 10 5.1 10 0 10 C0 6.7 0 3.4 0 0 Z " fill="#E7E7E7" transform="translate(345,390)"/>
<path d="M0 0 C4.95 0 9.9 0 15 0 C15 3.3 15 6.6 15 10 C10.05 10 5.1 10 0 10 C0 6.7 0 3.4 0 0 Z " fill="#FEFEFE" transform="translate(330,390)"/>
<path d="M0 0 C4.95 0 9.9 0 15 0 C15 3.3 15 6.6 15 10 C10.05 10 5.1 10 0 10 C0 6.7 0 3.4 0 0 Z " fill="#E7E7E7" transform="translate(315,390)"/>
<path d="M0 0 C4.95 0 9.9 0 15 0 C15 3.3 15 6.6 15 10 C10.05 10 5.1 10 0 10 C0 6.7 0 3.4 0 0 Z " fill="#FEFEFE" transform="translate(300,390)"/>
<path d="M0 0 C4.95 0 9.9 0 15 0 C15 3.3 15 6.6 15 10 C10.05 10 5.1 10 0 10 C0 6.7 0 3.4 0 0 Z " fill="#E7E7E7" transform="translate(285,390)"/>
<path d="M0 0 C4.95 0 9.9 0 15 0 C15 3.3 15 6.6 15 10 C10.05 10 5.1 10 0 10 C0 6.7 0 3.4 0 0 Z " fill="#FEFEFE" transform="translate(270,390)"/>
<path d="M0 0 C4.95 0 9.9 0 15 0 C15 3.3 15 6.6 15 10 C10.05 10 5.1 10 0 10 C0 6.7 0 3.4 0 0 Z " fill="#E7E7E7" transform="translate(255,390)"/>
<path d="M0 0 C4.95 0 9.9 0 15 0 C15 3.3 15 6.6 15 10 C10.05 10 5.1 10 0 10 C0 6.7 0 3.4 0 0 Z " fill="#FEFEFE" transform="translate(240,390)"/>
<path d="M0 0 C4.95 0 9.9 0 15 0 C15 3.3 15 6.6 15 10 C10.05 10 5.1 10 0 10 C0 6.7 0 3.4 0 0 Z " fill="#FEFEFE" transform="translate(210,390)"/>
<path d="M0 0 C4.95 0 9.9 0 15 0 C15 3.3 15 6.6 15 10 C10.05 10 5.1 10 0 10 C0 6.7 0 3.4 0 0 Z " fill="#FEFEFE" transform="translate(180,390)"/>
<path d="M0 0 C4.95 0 9.9 0 15 0 C15 3.3 15 6.6 15 10 C10.05 10 5.1 10 0 10 C0 6.7 0 3.4 0 0 Z " fill="#FEFEFE" transform="translate(150,390)"/>
<path d="M0 0 C4.95 0 9.9 0 15 0 C15 3.3 15 6.6 15 10 C10.05 10 5.1 10 0 10 C0 6.7 0 3.4 0 0 Z " fill="#E7E7E7" transform="translate(135,390)"/>
<path d="M0 0 C4.95 0 9.9 0 15 0 C15 3.3 15 6.6 15 10 C10.05 10 5.1 10 0 10 C0 6.7 0 3.4 0 0 Z " fill="#FEFEFE" transform="translate(120,390)"/>
<path d="M0 0 C4.95 0 9.9 0 15 0 C15 3.3 15 6.6 15 10 C10.05 10 5.1 10 0 10 C0 6.7 0 3.4 0 0 Z " fill="#E7E7E7" transform="translate(105,390)"/>
<path d="M0 0 C4.95 0 9.9 0 15 0 C15 3.3 15 6.6 15 10 C10.05 10 5.1 10 0 10 C0 6.7 0 3.4 0 0 Z " fill="#FEFEFE" transform="translate(90,390)"/>
<path d="M0 0 C4.95 0 9.9 0 15 0 C15 3.3 15 6.6 15 10 C10.05 10 5.1 10 0 10 C0 6.7 0 3.4 0 0 Z " fill="#E7E7E7" transform="translate(75,390)"/>
<path d="M0 0 C4.95 0 9.9 0 15 0 C15 3.3 15 6.6 15 10 C10.05 10 5.1 10 0 10 C0 6.7 0 3.4 0 0 Z " fill="#FEFEFE" transform="translate(60,390)"/>
<path d="M0 0 C4.95 0 9.9 0 15 0 C15 3.3 15 6.6 15 10 C10.05 10 5.1 10 0 10 C0 6.7 0 3.4 0 0 Z " fill="#E7E7E7" transform="translate(45,390)"/>
<path d="M0 0 C4.95 0 9.9 0 15 0 C15 3.3 15 6.6 15 10 C10.05 10 5.1 10 0 10 C0 6.7 0 3.4 0 0 Z " fill="#FEFEFE" transform="translate(30,390)"/>
<path d="M0 0 C4.95 0 9.9 0 15 0 C15 3.3 15 6.6 15 10 C10.05 10 5.1 10 0 10 C0 6.7 0 3.4 0 0 Z " fill="#E7E7E7" transform="translate(15,390)"/>
<path d="M0 0 C4.95 0 9.9 0 15 0 C15 3.3 15 6.6 15 10 C10.05 10 5.1 10 0 10 C0 6.7 0 3.4 0 0 Z " fill="#FEFEFE" transform="translate(0,390)"/>
<path d="M0 0 C3.3 0 6.6 0 10 0 C10 4.95 10 9.9 10 15 C6.7 15 3.4 15 0 15 C0 10.05 0 5.1 0 0 Z " fill="#E6E6E6" transform="translate(390,375)"/>
<path d="M0 0 C3.3 0 6.6 0 10 0 C10 4.95 10 9.9 10 15 C6.7 15 3.4 15 0 15 C0 10.05 0 5.1 0 0 Z " fill="#FEFEFE" transform="translate(390,360)"/>
<path d="M0 0 C3.3 0 6.6 0 10 0 C10 4.95 10 9.9 10 15 C6.7 15 3.4 15 0 15 C0 10.05 0 5.1 0 0 Z " fill="#E6E6E6" transform="translate(390,345)"/>
<path d="M0 0 C3.3 0 6.6 0 10 0 C10 4.95 10 9.9 10 15 C6.7 15 3.4 15 0 15 C0 10.05 0 5.1 0 0 Z " fill="#FEFEFE" transform="translate(390,330)"/>
<path d="M0 0 C3.3 0 6.6 0 10 0 C10 4.95 10 9.9 10 15 C6.7 15 3.4 15 0 15 C0 10.05 0 5.1 0 0 Z " fill="#E6E6E6" transform="translate(390,315)"/>
<path d="M0 0 C3.3 0 6.6 0 10 0 C10 4.95 10 9.9 10 15 C6.7 15 3.4 15 0 15 C0 10.05 0 5.1 0 0 Z " fill="#FEFEFE" transform="translate(390,300)"/>
<path d="M0 0 C3.3 0 6.6 0 10 0 C10 4.95 10 9.9 10 15 C6.7 15 3.4 15 0 15 C0 10.05 0 5.1 0 0 Z " fill="#E6E6E6" transform="translate(390,285)"/>
<path d="M0 0 C3.3 0 6.6 0 10 0 C10 4.95 10 9.9 10 15 C6.7 15 3.4 15 0 15 C0 10.05 0 5.1 0 0 Z " fill="#FEFEFE" transform="translate(390,270)"/>
<path d="M0 0 C3.3 0 6.6 0 10 0 C10 4.95 10 9.9 10 15 C6.7 15 3.4 15 0 15 C0 10.05 0 5.1 0 0 Z " fill="#E6E6E6" transform="translate(390,255)"/>
<path d="M0 0 C3.3 0 6.6 0 10 0 C10 4.95 10 9.9 10 15 C6.7 15 3.4 15 0 15 C0 10.05 0 5.1 0 0 Z " fill="#FEFEFE" transform="translate(390,240)"/>
<path d="M0 0 C3.3 0 6.6 0 10 0 C10 4.95 10 9.9 10 15 C6.7 15 3.4 15 0 15 C0 10.05 0 5.1 0 0 Z " fill="#E6E6E6" transform="translate(390,225)"/>
<path d="M0 0 C3.3 0 6.6 0 10 0 C10 4.95 10 9.9 10 15 C6.7 15 3.4 15 0 15 C0 10.05 0 5.1 0 0 Z " fill="#FEFEFE" transform="translate(390,210)"/>
<path d="M0 0 C3.3 0 6.6 0 10 0 C10 4.95 10 9.9 10 15 C6.7 15 3.4 15 0 15 C0 10.05 0 5.1 0 0 Z " fill="#E6E6E6" transform="translate(390,195)"/>
<path d="M0 0 C3.3 0 6.6 0 10 0 C10 4.95 10 9.9 10 15 C6.7 15 3.4 15 0 15 C0 10.05 0 5.1 0 0 Z " fill="#FEFEFE" transform="translate(390,180)"/>
<path d="M0 0 C3.3 0 6.6 0 10 0 C10 4.95 10 9.9 10 15 C6.7 15 3.4 15 0 15 C0 10.05 0 5.1 0 0 Z " fill="#E6E6E6" transform="translate(390,165)"/>
<path d="M0 0 C3.3 0 6.6 0 10 0 C10 4.95 10 9.9 10 15 C6.7 15 3.4 15 0 15 C0 10.05 0 5.1 0 0 Z " fill="#FEFEFE" transform="translate(390,150)"/>
<path d="M0 0 C3.3 0 6.6 0 10 0 C10 4.95 10 9.9 10 15 C6.7 15 3.4 15 0 15 C0 10.05 0 5.1 0 0 Z " fill="#E6E6E6" transform="translate(390,135)"/>
<path d="M0 0 C3.3 0 6.6 0 10 0 C10 4.95 10 9.9 10 15 C6.7 15 3.4 15 0 15 C0 10.05 0 5.1 0 0 Z " fill="#FEFEFE" transform="translate(390,120)"/>
<path d="M0 0 C3.3 0 6.6 0 10 0 C10 4.95 10 9.9 10 15 C6.7 15 3.4 15 0 15 C0 10.05 0 5.1 0 0 Z " fill="#E6E6E6" transform="translate(390,105)"/>
<path d="M0 0 C3.3 0 6.6 0 10 0 C10 4.95 10 9.9 10 15 C6.7 15 3.4 15 0 15 C0 10.05 0 5.1 0 0 Z " fill="#FEFEFE" transform="translate(390,90)"/>
<path d="M0 0 C3.3 0 6.6 0 10 0 C10 4.95 10 9.9 10 15 C6.7 15 3.4 15 0 15 C0 10.05 0 5.1 0 0 Z " fill="#E6E6E6" transform="translate(390,75)"/>
<path d="M0 0 C3.3 0 6.6 0 10 0 C10 4.95 10 9.9 10 15 C6.7 15 3.4 15 0 15 C0 10.05 0 5.1 0 0 Z " fill="#FEFEFE" transform="translate(390,60)"/>
<path d="M0 0 C3.3 0 6.6 0 10 0 C10 4.95 10 9.9 10 15 C6.7 15 3.4 15 0 15 C0 10.05 0 5.1 0 0 Z " fill="#E6E6E6" transform="translate(390,45)"/>
<path d="M0 0 C3.3 0 6.6 0 10 0 C10 4.95 10 9.9 10 15 C6.7 15 3.4 15 0 15 C0 10.05 0 5.1 0 0 Z " fill="#FEFEFE" transform="translate(390,30)"/>
<path d="M0 0 C3.3 0 6.6 0 10 0 C10 4.95 10 9.9 10 15 C6.7 15 3.4 15 0 15 C0 10.05 0 5.1 0 0 Z " fill="#E6E6E6" transform="translate(390,15)"/>
<path d="M0 0 C3.3 0 6.6 0 10 0 C10 4.95 10 9.9 10 15 C6.7 15 3.4 15 0 15 C0 10.05 0 5.1 0 0 Z " fill="#FEFEFE" transform="translate(390,0)"/>
<path d="M0 0 C0 3.63 0 7.26 0 11 C-4.95 11 -9.9 11 -15 11 C-15 8.03 -15 5.06 -15 2 C-13.06302033 1.66365624 -11.12539514 1.33102835 -9.1875 1 C-7.56908203 0.7215625 -7.56908203 0.7215625 -5.91796875 0.4375 C-3 0 -3 0 0 0 Z " fill="#F9FAFC" transform="translate(240,379)"/>
<path d="M0 0 C2.05827398 3.08741097 2.5536593 4.92740851 3.25390625 8.515625 C3.57584961 10.14564453 3.57584961 10.14564453 3.90429688 11.80859375 C4.12150391 12.94425781 4.33871094 14.07992187 4.5625 15.25 C4.78357422 16.37019531 5.00464844 17.49039063 5.23242188 18.64453125 C8.15317954 33.59245719 8.15317954 33.59245719 8.0625 40.9375 C8.05347656 41.89527344 8.04445313 42.85304687 8.03515625 43.83984375 C8.02355469 44.55269531 8.01195312 45.26554687 8 46 C8.99 46.33 9.98 46.66 11 47 C10.505 47.495 10.505 47.495 10 48 C9.92396856 50.0106092 9.85314585 52.02158239 9.81176758 54.03320312 C9.42512615 69.47440855 9.42512615 69.47440855 4 75 C0.6875 76.5625 0.6875 76.5625 -2 77 C-1.59007812 76.45730469 -1.18015625 75.91460937 -0.7578125 75.35546875 C-0.21898437 74.64003906 0.31984375 73.92460937 0.875 73.1875 C1.40867187 72.47980469 1.94234375 71.77210938 2.4921875 71.04296875 C5.08862043 67.52500392 6.2539199 65.63024437 6.265625 61.2734375 C6.27178833 59.86215576 6.27178833 59.86215576 6.27807617 58.42236328 C6.26881104 57.4167334 6.2595459 56.41110352 6.25 55.375 C6.24395752 54.33972168 6.23791504 53.30444336 6.23168945 52.23779297 C6.06980754 39.54036418 4.33117519 27.31456082 2.04248047 14.84838867 C1.135736 9.90458381 0.45490065 5.00390712 0 0 Z " fill="#5A6AAA" transform="translate(313,189)"/>
<path d="M0 0 C2.64 0 5.28 0 8 0 C8 4.95 8 9.9 8 15 C4.7 15 1.4 15 -2 15 C-2.16803599 9.45481226 -2.13843222 5.21242854 0 0 Z " fill="#FBFCFE" transform="translate(382,225)"/>
<path d="M0 0 C10.55808656 -0.18451025 10.55808656 -0.18451025 15 1 C15 3.64 15 6.28 15 9 C10.05 9 5.1 9 0 9 C0 6.03 0 3.06 0 0 Z " fill="#FCFCFE" transform="translate(165,381)"/>
<path d="M0 0 C2.05078125 0.03255208 4.1015625 0.06510417 6.15234375 0.09765625 C6.15234375 5.04765625 6.15234375 9.99765625 6.15234375 15.09765625 C3.51234375 15.09765625 0.87234375 15.09765625 -1.84765625 15.09765625 C-2.801139 10.33024252 -3.01173581 5.93800341 -2.84765625 1.09765625 C-1.84765625 0.09765625 -1.84765625 0.09765625 0 0 Z " fill="#FDFEFE" transform="translate(383.84765625,164.90234375)"/>
<path d="M0 0 C4.95 0 9.9 0 15 0 C15 3.3 15 6.6 15 10 C6.585 8.02 6.585 8.02 -2 6 C-1.34 5.67 -0.68 5.34 0 5 C0 3.35 0 1.7 0 0 Z " fill="#E4E6E9" transform="translate(240,15)"/>
<path d="M0 0 C1.96529009 3.45207476 2.7746477 6.88476226 3.625 10.75 C3.88539062 11.92046875 4.14578125 13.0909375 4.4140625 14.296875 C4.60742188 15.18890625 4.80078125 16.0809375 5 17 C1.7 17 -1.6 17 -5 17 C-5 12.05 -5 7.1 -5 2 C-3.35 2 -1.7 2 0 2 C0 1.34 0 0.68 0 0 Z " fill="#E4E5E9" transform="translate(20,238)"/>
<path d="M0 0 C2.97 0 5.94 0 9 0 C9 7.92 9 15.84 9 24 C6.70255725 20.55383588 5.36529921 16.98110006 3.9375 13.125 C3.66873047 12.41730469 3.39996094 11.70960938 3.12304688 10.98046875 C1.76458391 7.34209162 0.61200424 3.85336003 0 0 Z " fill="#FAFCFD" transform="translate(366,120)"/>
<path d="M0 0 C4.61128305 0.73238025 8.78172689 2.28800557 13.125 3.9375 C14.19814453 4.33485352 14.19814453 4.33485352 15.29296875 4.74023438 C18.46064181 5.93329255 21.17196825 7.1146455 24 9 C16.08 9 8.16 9 0 9 C0 6.03 0 3.06 0 0 Z " fill="#FAFBFD" transform="translate(120,366)"/>
<path d="M0 0 C1.98 0 3.96 0 6 0 C6 4.95 6 9.9 6 15 C3.36 15 0.72 15 -2 15 C-1.855625 14.01 -1.71125 13.02 -1.5625 12 C-0.99074821 8.00590535 -0.49180166 4.00467063 0 0 Z " fill="#E6E6E8" transform="translate(384,210)"/>
<path d="M0 0 C3.3 0 6.6 0 10 0 C10 3.3 10 6.6 10 10 C6.7 10 3.4 10 0 10 C0 6.7 0 3.4 0 0 Z " fill="#FEFEFE" transform="translate(390,390)"/>
<path d="M0 0 C2.64 0 5.28 0 8 0 C7.44854729 5.23880078 6.57077907 9.97350697 5 15 C3.35 15 1.7 15 0 15 C0 10.05 0 5.1 0 0 Z " fill="#E4E6E8" transform="translate(15,150)"/>
<path d="M0 0 C4.95 0 9.9 0 15 0 C15 1.65 15 3.3 15 5 C13.25183142 5.50636607 11.50137737 6.00484619 9.75 6.5 C8.77546875 6.7784375 7.8009375 7.056875 6.796875 7.34375 C4 8 4 8 0 8 C0 5.36 0 2.72 0 0 Z " fill="#E4E4E7" transform="translate(150,15)"/>
<path d="M0 0 C-2.97 1.65 -5.94 3.3 -9 5 C-8.67 5.66 -8.34 6.32 -8 7 C-11.04007685 8.29543103 -14.08233552 9.58565977 -17.125 10.875 C-17.9809375 11.23980469 -18.836875 11.60460937 -19.71875 11.98046875 C-24.1004429 13.8342619 -28.45206901 15.58343133 -33 17 C-29.75746413 13.41614457 -26.06876111 10.99308295 -21.9375 8.5625 C-21.27717773 8.17143066 -20.61685547 7.78036133 -19.93652344 7.37744141 C-4.64481358 -1.54827119 -4.64481358 -1.54827119 0 0 Z " fill="#6A75AF" transform="translate(151,123)"/>
<path d="M0 0 C4.95 0 9.9 0 15 0 C15 1.98 15 3.96 15 6 C10.05 6 5.1 6 0 6 C0 4.02 0 2.04 0 0 Z " fill="#FEFEFE" transform="translate(195,384)"/>
<path d="M0 0 C1.98 0 3.96 0 6 0 C6 4.95 6 9.9 6 15 C4.02 15 2.04 15 0 15 C0 10.05 0 5.1 0 0 Z " fill="#FEFEFE" transform="translate(384,195)"/>
<path d="M0 0 C3.78717347 1.48781815 5.77407001 3.61988409 8 7 C7.67 7.99 7.34 8.98 7 10 C6.96125079 11.66621616 6.9549714 13.33394172 7 15 C7.66 15 8.32 15 9 15 C9.18175781 15.68707031 9.36351562 16.37414062 9.55078125 17.08203125 C9.92783203 18.43361328 9.92783203 18.43361328 10.3125 19.8125 C10.55613281 20.70582031 10.79976563 21.59914062 11.05078125 22.51953125 C11.81245634 25.03735055 11.81245634 25.03735055 13.59375 26.53125 C15 28 15 28 15.29296875 30.26171875 C15.25816406 31.06222656 15.22335937 31.86273438 15.1875 32.6875 C15.16042969 33.49574219 15.13335937 34.30398437 15.10546875 35.13671875 C15.07066406 35.75160156 15.03585937 36.36648437 15 37 C12.9310588 34.9310588 12.43145851 33.83713021 11.484375 31.140625 C11.20537354 30.36066162 10.92637207 29.58069824 10.63891602 28.77709961 C10.19890259 27.5261853 10.19890259 27.5261853 9.75 26.25 C7.11390834 18.89727941 4.25294022 11.72002551 1.06640625 4.58984375 C0 2 0 2 0 0 Z " fill="#5D6BAC" transform="translate(294,138)"/>
<path d="M0 0 C0.66 0.33 1.32 0.66 2 1 C0.46065157 6.32005584 -1.93238679 10.88584182 -4.625 15.6875 C-5.28725586 16.87363892 -5.28725586 16.87363892 -5.96289062 18.08374023 C-15.38480207 34.69240103 -15.38480207 34.69240103 -20 37 C-21 34 -21 34 -20 31 C-19.39542969 30.88269531 -18.79085938 30.76539063 -18.16796875 30.64453125 C-14.87905499 29.66674608 -14.06453174 27.55687952 -12.3125 24.6875 C-11.40951172 23.23923828 -11.40951172 23.23923828 -10.48828125 21.76171875 C-9.22833307 19.42370467 -8.46138867 17.58992841 -8 15 C-7.34 15 -6.68 15 -6 15 C-5.81824219 14.41992188 -5.63648438 13.83984375 -5.44921875 13.2421875 C-3.9581894 8.60852707 -2.31666424 4.30237645 0 0 Z " fill="#5A69A5" transform="translate(365,274)"/>
<path d="M0 0 C4.571279 0.54855348 8.67435795 1.41744803 13 3 C13 3.66 13 4.32 13 5 C15.475 5.99 15.475 5.99 18 7 C18 7.66 18 8.32 18 9 C13.42706625 10.3857375 10.3640541 9.91405882 6 8 C3.69505148 5.51813657 1.81321494 2.85597958 0 0 Z " fill="#636FAF" transform="translate(233,118)"/>
<path d="M0 0 C0 0.66 0 1.32 0 2 C-5.6202772 7.48803538 -12.97646767 10.72105811 -20 14 C-20.68578125 14.33257812 -21.3715625 14.66515625 -22.078125 15.0078125 C-26.00212185 16.82840563 -29.70995017 17.56223981 -34 18 C-34 17.34 -34 16.68 -34 16 C-32.97261719 15.63648438 -31.94523437 15.27296875 -30.88671875 14.8984375 C-22.50631352 11.87958583 -7.36091157 0 0 0 Z " fill="#4D5DA5" transform="translate(310,267)"/>
<path d="M0 0 C0.66 0.33 1.32 0.66 2 1 C0.79803737 3.60596457 0.08910799 5.12161475 -2 7 C-5.36864752 7.79849988 -8.62193467 7.61111772 -12.0625 7.4375 C-13.42858398 7.40946289 -13.42858398 7.40946289 -14.82226562 7.38085938 C-18.48729761 7.28092851 -21.50227122 7.16590959 -25 6 C-25 5.34 -25 4.68 -25 4 C-26.65 4 -28.3 4 -30 4 C-30 3.34 -30 2.68 -30 2 C-29.21238281 2.144375 -28.42476563 2.28875 -27.61328125 2.4375 C-15.84762334 4.51470193 -15.84762334 4.51470193 -4 4 C-1.63459247 2.10037638 -1.63459247 2.10037638 0 0 Z " fill="#5E6AAB" transform="translate(147,280)"/>
<path d="M0 0 C0 7.23508388 -9.55871732 14.67657926 -14.5625 19.6875 C-16.03660339 21.13019175 -17.51386193 22.56970845 -19 24 C-19.66 23.34 -20.32 22.68 -21 22 C-18.375 17.125 -18.375 17.125 -15 16 C-14.67 15.01 -14.34 14.02 -14 13 C-13.01 12.67 -12.02 12.34 -11 12 C-10.690625 11.360625 -10.38125 10.72125 -10.0625 10.0625 C-9 8 -9 8 -7.1875 7.125 C-3.91488804 5.44194242 -2.25820186 2.88548015 0 0 Z " fill="#5A68AB" transform="translate(343,312)"/>
<path d="M0 0 C4.95 0 9.9 0 15 0 C15 1.65 15 3.3 15 5 C9.5610835 5.21755666 5.12919186 5.10428384 0 3 C0 2.01 0 1.02 0 0 Z " fill="#FAFBFD" transform="translate(225,15)"/>
<path d="M0 0 C4.46681566 2.4364449 8.34058488 5.47768112 12 9 C12 9.33 12 9.66 12 10 C8.04 10 4.08 10 0 10 C0 6.7 0 3.4 0 0 Z " fill="#E2E2E9" transform="translate(75,335)"/>
<path d="M0 0 C1.32 0.33 2.64 0.66 4 1 C4.95261487 5.76307437 5.08333357 10.1666528 5 15 C3.35 15 1.7 15 0 15 C0 10.05 0 5.1 0 0 Z " fill="#F9FBFD" transform="translate(15,225)"/>
<path d="M0 0 C0.66 0 1.32 0 2 0 C1.54472975 5.17570386 0.81998888 10.08018834 -0.53125 15.09765625 C-1.09806178 17.25878537 -1.09806178 17.25878537 -1.5 20.5625 C-2.02541732 24.17474405 -2.99813803 27.4934831 -4 31 C-4.36950465 33.32787927 -4.71352467 35.66045145 -5 38 C-5.33 38 -5.66 38 -6 38 C-6.23208397 31.43975992 -5.36098842 25.43415248 -4.125 19 C-3.95097656 18.05382812 -3.77695312 17.10765625 -3.59765625 16.1328125 C-2.58157883 10.69867995 -1.40005197 5.34794628 0 0 Z " fill="#96A1CE" transform="translate(23,150)"/>
<path d="M0 0 C3.3 0 6.6 0 10 0 C10 3.96 10 7.92 10 12 C6.40459445 8.50732032 3.12221448 4.92506963 0 1 C0 0.67 0 0.34 0 0 Z " fill="#E2E5E9" transform="translate(335,75)"/>
<path d="M0 0 C0 3 0 3 -1.90625 5.0859375 C-13.23769555 15.0862795 -13.23769555 15.0862795 -18 17 C-18.99 16.67 -19.98 16.34 -21 16 C-20.38125 15.71125 -19.7625 15.4225 -19.125 15.125 C-16.86674235 14.06279958 -16.86674235 14.06279958 -15 12 C-13.68252676 11.30251417 -12.35085807 10.63040043 -11 10 C-12.32 10 -13.64 10 -15 10 C-15 9.34 -15 8.68 -15 8 C-14.00097656 7.50628906 -13.00195312 7.01257813 -11.97265625 6.50390625 C-10.6692186 5.85687605 -9.36583602 5.20973489 -8.0625 4.5625 C-7.40314453 4.23701172 -6.74378906 3.91152344 -6.06445312 3.57617188 C-2.81709965 2.10888654 -2.81709965 2.10888654 0 0 Z " fill="#5764A7" transform="translate(279,245)"/>
<path d="M0 0 C0.4640625 0.268125 0.928125 0.53625 1.40625 0.8125 C9.11410683 5.18412029 17.05956688 9.07362632 25 13 C24 15 24 15 22 16 C21.608125 15.484375 21.21625 14.96875 20.8125 14.4375 C19.9153125 13.7259375 19.9153125 13.7259375 19 13 C18.21625 13.20625 17.4325 13.4125 16.625 13.625 C15.75875 13.74875 14.8925 13.8725 14 14 C11.1875 11.6875 11.1875 11.6875 9 9 C9 8.34 9 7.68 9 7 C8.443125 6.731875 7.88625 6.46375 7.3125 6.1875 C4.78774666 4.89100504 2.36285516 3.57523677 0 2 C0 1.34 0 0.68 0 0 Z " fill="#5A66AB" transform="translate(91,268)"/>
<path d="M0 0 C0.556875 0.2475 1.11375 0.495 1.6875 0.75 C-3.0625 4.75 -3.0625 4.75 -5.3125 4.75 C-5.3125 5.41 -5.3125 6.07 -5.3125 6.75 C-12.2425 10.215 -12.2425 10.215 -19.3125 13.75 C-19.6425 12.76 -19.9725 11.77 -20.3125 10.75 C-19.43207031 10.29109375 -18.55164063 9.8321875 -17.64453125 9.359375 C-16.48308594 8.74578125 -15.32164062 8.1321875 -14.125 7.5 C-12.97644531 6.89671875 -11.82789063 6.2934375 -10.64453125 5.671875 C-7.29443691 3.85531436 -7.29443691 3.85531436 -4.53125 1.5 C-2.3125 -0.25 -2.3125 -0.25 0 0 Z " fill="#CBD0F0" transform="translate(273.3125,254.25)"/>
<path d="M0 0 C0.66 0.33 1.32 0.66 2 1 C-3.69809125 6.46971084 -9.49822315 11.60561844 -15.9375 16.1875 C-16.99839844 16.94417969 -18.05929687 17.70085937 -19.15234375 18.48046875 C-22 20 -22 20 -24.37890625 19.73828125 C-24.91386719 19.49464844 -25.44882812 19.25101562 -26 19 C-25.2265625 18.49210937 -24.453125 17.98421875 -23.65625 17.4609375 C-15.41788245 12.0162738 -7.52314486 6.39467313 0 0 Z " fill="#525FA2" transform="translate(321,335)"/>
<path d="M0 0 C2.94645992 1.31731577 4.87836004 2.6996069 7.0625 5.0625 C10.99834368 9.15302749 15.37362099 12.58960134 19.83984375 16.08203125 C20.55269531 16.71496094 21.26554687 17.34789062 22 18 C22 18.66 22 19.32 22 20 C19.22951358 18.71359495 16.9963532 17.31576229 14.6875 15.3203125 C14.08679688 14.80339844 13.48609375 14.28648437 12.8671875 13.75390625 C12.25101563 13.21636719 11.63484375 12.67882812 11 12.125 C10.38382813 11.59519531 9.76765625 11.06539063 9.1328125 10.51953125 C2.48373038 4.76935937 2.48373038 4.76935937 0 2 C0 1.34 0 0.68 0 0 Z " fill="#636EAB" transform="translate(68,326)"/>
<path d="M0 0 C3.59634744 3.49359465 6.83451967 7.11098131 10 11 C6.7 11 3.4 11 0 11 C0 7.37 0 3.74 0 0 Z " fill="#E2E4EB" transform="translate(60,319)"/>
<path d="M0 0 C3.63 0 7.26 0 11 0 C11 3.3 11 6.6 11 10 C6.50852645 6.76024859 3.34638555 4.4618474 0 0 Z " fill="#E3E5EA" transform="translate(319,60)"/>
<path d="M0 0 C3.65700168 2.74275126 6.45488558 5.57625484 9.25 9.1875 C11.50816591 12.19505958 11.50816591 12.19505958 14 15 C16.18292774 15.23481693 18.37203174 15.41363323 20.5625 15.5625 C21.76003906 15.64628906 22.95757812 15.73007812 24.19140625 15.81640625 C25.11824219 15.87699219 26.04507812 15.93757813 27 16 C23.22651099 18.51565934 20.71774423 19.125 16.20703125 19.125 C9.06996314 16.62137562 3.80178334 8.32810618 0 2 C0 1.34 0 0.68 0 0 Z " fill="#5563A7" transform="translate(243,269)"/>
<path d="M0 0 C2.10715097 2.80953463 3.66589463 5.05846964 5.1875 8.125 C5.53167969 8.80820312 5.87585937 9.49140625 6.23046875 10.1953125 C7 12 7 12 7 14 C4.69 14 2.38 14 0 14 C0 9.38 0 4.76 0 0 Z " fill="#FAFBFE" transform="translate(30,271)"/>
<path d="M0 0 C1.65 0 3.3 0 5 0 C4.34 4.95 3.68 9.9 3 15 C2.01 15 1.02 15 0 15 C0 10.05 0 5.1 0 0 Z " fill="#FBFCFE" transform="translate(15,165)"/>
<path d="M0 0 C4.62 0 9.24 0 14 0 C14 2.31 14 4.62 14 7 C9.0276578 5.50829734 4.58154261 3.39542583 0 1 C0 0.67 0 0.34 0 0 Z " fill="#FAFCFE" transform="translate(271,30)"/>
<path d="M0 0 C4.95 0 9.9 0 15 0 C15 0.99 15 1.98 15 3 C10.05 3.66 5.1 4.32 0 5 C0 3.35 0 1.7 0 0 Z " fill="#FBFCFE" transform="translate(165,15)"/>
<path d="M0 0 C0.33 0 0.66 0 1 0 C1.33 11.55 1.66 23.1 2 35 C1.01 35 0.02 35 -1 35 C-1.15956375 23.29865851 -0.66408409 11.68076488 0 0 Z " fill="#DBDFF1" transform="translate(16,190)"/>
<path d="M0 0 C2 2 2 2 2.22705078 4.79736328 C2.21657715 5.95993652 2.20610352 7.12250977 2.1953125 8.3203125 C2.18886719 9.57714844 2.18242187 10.83398438 2.17578125 12.12890625 C2.15902344 13.44761719 2.14226562 14.76632813 2.125 16.125 C2.11496983 17.46483721 2.10584404 18.80468152 2.09765625 20.14453125 C2.07402075 23.42986573 2.04107234 26.71484465 2 30 C-0.49114788 26.26327818 -0.17644976 24.31448248 -0.0625 19.875 C-0.00861867 17.58387212 0.02051367 15.29166955 0 13 C-0.33 12.67 -0.66 12.34 -1 12 C-0.90997602 9.97591245 -0.75358962 7.95455713 -0.5625 5.9375 C-0.46066406 4.83277344 -0.35882813 3.72804687 -0.25390625 2.58984375 C-0.17011719 1.73519531 -0.08632813 0.88054687 0 0 Z " fill="#6475B4" transform="translate(381,184)"/>
<path d="M0 0 C2.64 0 5.28 0 8 0 C6.85845641 1.83600745 5.71165684 3.66874805 4.5625 5.5 C3.92441406 6.5209375 3.28632812 7.541875 2.62890625 8.59375 C2.09136719 9.3878125 1.55382813 10.181875 1 11 C0.67 11 0.34 11 0 11 C0 7.37 0 3.74 0 0 Z " fill="#E4E4EA" transform="translate(45,90)"/>
<path d="M0 0 C0.33 0.99 0.66 1.98 1 3 C-0.96549685 4.96549685 -2.93120333 6.93077276 -4.8984375 8.89453125 C-6.11737359 10.11573302 -7.3328474 11.34045051 -8.5390625 12.57421875 C-10.61451817 14.69423942 -12.51117401 16.34078267 -15 18 C-13.52357373 12.77345099 -10.17768064 9.83173561 -6.375 6.1875 C-5.76398438 5.59001953 -5.15296875 4.99253906 -4.5234375 4.37695312 C-3.02235161 2.91104894 -1.51207138 1.45457007 0 0 Z " fill="#ADB8DD" transform="translate(77,63)"/>
<path d="M0 0 C3.63 0 7.26 0 11 0 C7.72291137 3.67033927 4.28477792 5.69281189 0 8 C0 5.36 0 2.72 0 0 Z " fill="#E3E4EA" transform="translate(90,45)"/>
<path d="M0 0 C1.77260631 0.45142775 3.5430368 0.91140523 5.3125 1.375 C6.79169922 1.75785156 6.79169922 1.75785156 8.30078125 2.1484375 C11 3 11 3 14 5 C5.42857143 4 5.42857143 4 2 3 C2.33 4.32 2.66 5.64 3 7 C-0.68754757 6.50168276 -2.60490662 5.89932357 -5 3 C-4.360625 2.690625 -3.72125 2.38125 -3.0625 2.0625 C-1.06389179 1.1654837 -1.06389179 1.1654837 0 0 Z " fill="#5764AA" transform="translate(146,258)"/>
<path d="M0 0 C4.49324849 1.65770333 8.61186146 3.84982162 12.8125 6.125 C13.50537109 6.49753906 14.19824219 6.87007812 14.91210938 7.25390625 C16.60934836 8.16690377 18.30485138 9.08312716 20 10 C16.37673261 11.2077558 15.35853631 10.54311128 12 9 C12.33 9.66 12.66 10.32 13 11 C8.98935008 9.65843409 6.61296284 7.97314977 3.6875 4.9375 C2.99011719 4.22464844 2.29273437 3.51179687 1.57421875 2.77734375 C0 1 0 1 0 0 Z " fill="#5C65A1" transform="translate(120,245)"/>
<path d="M0 0 C0.33 0 0.66 0 1 0 C1.92834672 15.65811474 1.92834672 15.65811474 -2.48828125 22.390625 C-4.6950065 24.73990356 -6.86348684 25.48940483 -10 26 C-4 18 -4 18 -2.34375 16.1875 C-0.43113453 13.07393994 -0.48016156 10.37148967 -0.3125 6.75 C-0.24675781 5.48671875 -0.18101562 4.2234375 -0.11328125 2.921875 C-0.07589844 1.95765625 -0.03851563 0.9934375 0 0 Z " fill="#4D60A9" transform="translate(321,240)"/>
<path d="M0 0 C-0.66 1.65 -1.32 3.3 -2 5 C-6.62 5 -11.24 5 -16 5 C-13.13879225 3.09252817 -10.64745007 1.99646294 -7.4375 0.8125 C-6.46683594 0.44769531 -5.49617188 0.08289063 -4.49609375 -0.29296875 C-2 -1 -2 -1 0 0 Z " fill="#DCE0ED" transform="translate(272,370)"/>
<path d="M0 0 C-2.05824429 0.84378975 -4.12179786 1.67463622 -6.1875 2.5 C-7.33605469 2.9640625 -8.48460937 3.428125 -9.66796875 3.90625 C-12.71990077 4.90805652 -14.83115072 5.23870804 -18 5 C-18.33 4.34 -18.66 3.68 -19 3 C-16.586238 2.30048937 -14.16989766 1.61516081 -11.75 0.9375 C-11.06808594 0.73833984 -10.38617188 0.53917969 -9.68359375 0.33398438 C-3.41657839 -1.40009269 -3.41657839 -1.40009269 0 0 Z " fill="#5666AB" transform="translate(248,262)"/>
<path d="M0 0 C0.33 0 0.66 0 1 0 C1 4.62 1 9.24 1 14 C-0.65 14 -2.3 14 -4 14 C-3.21824485 9.15311808 -1.60155722 4.6233633 0 0 Z " fill="#DCE0EB" transform="translate(374,256)"/>
<path d="M0 0 C0.33 0.66 0.66 1.32 1 2 C1.66 2.33 2.32 2.66 3 3 C0.54595776 4.19716659 -1.91251679 5.3829346 -4.375 6.5625 C-5.42300781 7.07586914 -5.42300781 7.07586914 -6.4921875 7.59960938 C-8.30052216 8.46030712 -10.14851956 9.23652436 -12 10 C-12.66 9.67 -13.32 9.34 -14 9 C-9.38 6.03 -4.76 3.06 0 0 Z " fill="#666EA4" transform="translate(132,130)"/>
<path d="M0 0 C0.33 0 0.66 0 1 0 C1 2.31 1 4.62 1 7 C1.99 7.33 2.98 7.66 4 8 C3.68289063 8.51046875 3.36578125 9.0209375 3.0390625 9.546875 C1.66023727 12.80214659 1.5706427 15.72843132 1.375 19.25 C1.30023438 20.51328125 1.22546875 21.7765625 1.1484375 23.078125 C1.09945313 24.04234375 1.05046875 25.0065625 1 26 C0.67 26 0.34 26 0 26 C0 17.42 0 8.84 0 0 Z " fill="#6173B6" transform="translate(320,228)"/>
<path d="M0 0 C5.73491451 -0.88229454 8.76938812 1.49896975 13.2421875 4.6875 C13.82226562 5.120625 14.40234375 5.55375 15 6 C13 7 13 7 10.21484375 6.07421875 C9.13332031 5.61660156 8.05179687 5.15898437 6.9375 4.6875 C5.85339844 4.23761719 4.76929688 3.78773438 3.65234375 3.32421875 C1 2 1 2 0 0 Z " fill="#56609D" transform="translate(260,131)"/>
<path d="M0 0 C4.9240432 4.7652031 9.44259642 9.88657333 14 15 C11 15 11 15 8.80859375 12.98828125 C8.02613281 12.10527344 7.24367188 11.22226562 6.4375 10.3125 C5.65246094 9.44238281 4.86742187 8.57226562 4.05859375 7.67578125 C2.11096532 5.14423386 1.00372692 3.01118076 0 0 Z " fill="#6570A9" transform="translate(52,307)"/>
<path d="M0 0 C2.31 0 4.62 0 7 0 C4.25440052 2.94897721 1.65882726 5.26205705 -2 7 C-4.3125 6.6875 -4.3125 6.6875 -6 6 C-5.01 5.67 -4.02 5.34 -3 5 C-3 4.34 -3 3.68 -3 3 C-2.01 2.34 -1.02 1.68 0 1 C0 0.67 0 0.34 0 0 Z " fill="#5F6FBD" transform="translate(262,254)"/>
<path d="M0 0 C0 1.98 0 3.96 0 6 C-2.97 6 -5.94 6 -9 6 C-3 0 -3 0 0 0 Z " fill="#F8FBFE" transform="translate(300,354)"/>
<path d="M0 0 C0.98613281 0.30164063 1.97226562 0.60328125 2.98828125 0.9140625 C3.98214844 1.21054688 4.97601563 1.50703125 6 1.8125 C7.13888672 2.17214844 7.13888672 2.17214844 8.30078125 2.5390625 C7.97078125 3.1990625 7.64078125 3.8590625 7.30078125 4.5390625 C2.06902288 4.92187409 -1.07724569 3.75760957 -5.69921875 1.5390625 C-2.69921875 -0.4609375 -2.69921875 -0.4609375 0 0 Z " fill="#626EAF" transform="translate(256.69921875,127.4609375)"/>
<path d="M0 0 C0.66 0 1.32 0 2 0 C1.57388649 1.75280733 1.13360733 3.50217435 0.6875 5.25 C0.44386719 6.22453125 0.20023437 7.1990625 -0.05078125 8.203125 C-0.99652356 10.98975665 -2.10708713 12.77304368 -4 15 C-4.33 13.35 -4.66 11.7 -5 10 C-4.01 10 -3.02 10 -2 10 C-2.33 9.01 -2.66 8.02 -3 7 C-2.16396226 4.55160376 -1.15569573 2.31139145 0 0 Z " fill="#5F71B0" transform="translate(373,254)"/>
<path d="M0 0 C0.99 0.33 1.98 0.66 3 1 C2.34 1 1.68 1 1 1 C0.773125 1.556875 0.54625 2.11375 0.3125 2.6875 C-1.36167263 5.63723273 -3.57832311 7.6373884 -6 10 C-7.02813611 11.31175986 -8.04084432 12.6369893 -9 14 C-8.47929737 9.86330684 -7.3269206 7.78546392 -4.5 4.75 C-3.8709375 4.06421875 -3.241875 3.3784375 -2.59375 2.671875 C-1.73729192 1.77343369 -0.87770076 0.87770076 0 0 Z " fill="#5A66A4" transform="translate(151,192)"/>
<path d="M0 0 C0.33 0.66 0.66 1.32 1 2 C-0.32 3.32 -1.64 4.64 -3 6 C-2.34 6 -1.68 6 -1 6 C-1.33 6.99 -1.66 7.98 -2 9 C-3.70884005 7.37660195 -5.37446717 5.70680947 -7 4 C-7 3.34 -7 2.68 -7 2 C-4.69 1.34 -2.38 0.68 0 0 Z " fill="#C6CEF3" transform="translate(251,266)"/>
<path d="M0 0 C0 2.31 0 4.62 0 7 C-1.98 7 -3.96 7 -6 7 C-2.72340426 0 -2.72340426 0 0 0 Z " fill="#F9FCFE" transform="translate(360,293)"/>
<path d="M0 0 C3.81684226 1.55500981 6.19195732 4.03595495 9 7 C8.67 7.99 8.34 8.98 8 10 C6.66070495 8.71451591 5.32871357 7.42141845 4 6.125 C2.88625 5.04605469 2.88625 5.04605469 1.75 3.9453125 C0 2 0 2 0 0 Z " fill="#6B77B1" transform="translate(68,326)"/>
<path d="M0 0 C-0.66 1.65 -1.32 3.3 -2 5 C-3.65 5 -5.3 5 -7 5 C-7.66 3.68 -8.32 2.36 -9 1 C-5.8035914 -0.06546953 -3.34252724 -0.07427838 0 0 Z " fill="#6674BB" transform="translate(146,257)"/>
<path d="M0 0 C5.69051363 0.5381371 11.34865884 1.1400133 17 2 C17.33 2.99 17.66 3.98 18 5 C9 3 9 3 0 1 C0 0.67 0 0.34 0 0 Z " fill="#8F9FD5" transform="translate(239,23)"/>
<path d="M0 0 C-0.33 0.66 -0.66 1.32 -1 2 C-3.28515625 2.6328125 -3.28515625 2.6328125 -6.0625 3.125 C-6.98160156 3.29257812 -7.90070313 3.46015625 -8.84765625 3.6328125 C-9.91306641 3.81457031 -9.91306641 3.81457031 -11 4 C-11 3.34 -11 2.68 -11 2 C-9.73392393 1.46770674 -8.46189588 0.94955456 -7.1875 0.4375 C-6.47980469 0.14746094 -5.77210938 -0.14257812 -5.04296875 -0.44140625 C-3 -1 -3 -1 0 0 Z " fill="#5465AE" transform="translate(287,281)"/>
<path d="M0 0 C0.66 0.33 1.32 0.66 2 1 C-1.96 4.465 -1.96 4.465 -6 8 C-6.99 7.34 -7.98 6.68 -9 6 C-6.03 4.02 -3.06 2.04 0 0 Z " fill="#889BD0" transform="translate(107,44)"/>
<path d="M0 0 C4.95 0 9.9 0 15 0 C15 0.99 15 1.98 15 3 C13.35 3 11.7 3 10 3 C10 2.34 10 1.68 10 1 C6.7 1 3.4 1 0 1 C0 0.67 0 0.34 0 0 Z " fill="#E4E5EC" transform="translate(210,15)"/>
<path d="M0 0 C0.66 0.33 1.32 0.66 2 1 C0.8905928 4.48670834 -0.26337666 7.77484237 -2 11 C-2.66 11 -3.32 11 -4 11 C-3.39301257 6.87248551 -1.96189209 3.6678852 0 0 Z " fill="#6170B3" transform="translate(365,274)"/>
<path d="M0 0 C2.9425963 0.30652045 5.34542308 0.67271154 8 2 C8 2.66 8 3.32 8 4 C6.35 4.33 4.7 4.66 3 5 C3 4.34 3 3.68 3 3 C1.35 2.67 -0.3 2.34 -2 2 C-1.34 1.34 -0.68 0.68 0 0 Z " fill="#6875BE" transform="translate(243,123)"/>
<path d="M0 0 C3.63 1.65 7.26 3.3 11 5 C10.01 5.66 9.02 6.32 8 7 C5.36 5.68 2.72 4.36 0 3 C0 2.01 0 1.02 0 0 Z " fill="#EAF1FC" transform="translate(269,121)"/>
<path d="M0 0 C1.32 0 2.64 0 4 0 C3.46930939 3.82097239 2.50298434 6.06171403 0 9 C0 6.03 0 3.06 0 0 Z " fill="#FBFCFE" transform="translate(30,120)"/>
<path d="M0 0 C2.97 0 5.94 0 9 0 C6.06171403 2.50298434 3.82097239 3.46930939 0 4 C0 2.68 0 1.36 0 0 Z " fill="#FCFCFE" transform="translate(120,30)"/>
<path d="M0 0 C5.66153846 1.47692308 5.66153846 1.47692308 7.375 4.125 C7.684375 5.053125 7.684375 5.053125 8 6 C7.01 6.33 6.02 6.66 5 7 C3.35 4.69 1.7 2.38 0 0 Z " fill="#CCD5F0" transform="translate(249,275)"/>
<path d="M0 0 C0.66 0.33 1.32 0.66 2 1 C0.4375 4 0.4375 4 -2 7 C-5.75 7.375 -5.75 7.375 -9 7 C-9 6.67 -9 6.34 -9 6 C-7.35 6 -5.7 6 -4 6 C-3.71125 5.38125 -3.4225 4.7625 -3.125 4.125 C-2 2 -2 2 0 0 Z " fill="#5560A7" transform="translate(147,280)"/>
<path d="M0 0 C-1.32 0.33 -2.64 0.66 -4 1 C-4 1.66 -4 2.32 -4 3 C-6.64 3.33 -9.28 3.66 -12 4 C-8.15336308 0.86570325 -4.95471579 -1.65157193 0 0 Z " fill="#4E5CA1" transform="translate(263,256)"/>
<path d="M0 0 C0.66 1.32 1.32 2.64 2 4 C0.125 5.0625 0.125 5.0625 -2 6 C-2.66 5.67 -3.32 5.34 -4 5 C-4 4.01 -4 3.02 -4 2 C-2.68 1.34 -1.36 0.68 0 0 Z " fill="#727AB7" transform="translate(137,127)"/>
<path d="M0 0 C2.64 0.33 5.28 0.66 8 1 C8.33 1.99 8.66 2.98 9 4 C3.46153846 3.38461538 3.46153846 3.38461538 1.125 1.4375 C0.75375 0.963125 0.3825 0.48875 0 0 Z " fill="#5564A7" transform="translate(138,371)"/>
<path d="M0 0 C0 0.99 0 1.98 0 3 C-2.3125 4.125 -2.3125 4.125 -5 5 C-5.99 4.34 -6.98 3.68 -8 3 C-2.25 0 -2.25 0 0 0 Z " fill="#5A68B2" transform="translate(279,363)"/>
<path d="M0 0 C1.65 0.33 3.3 0.66 5 1 C4.67 1.99 4.34 2.98 4 4 C2.35 4.33 0.7 4.66 -1 5 C-0.67 3.35 -0.34 1.7 0 0 Z " fill="#6873BD" transform="translate(148,261)"/>
<path d="M0 0 C0.99 0 1.98 0 3 0 C2.60196439 2.88575819 2.20990931 3.82189513 -0.0625 5.75 C-0.701875 6.1625 -1.34125 6.575 -2 7 C-2 3.89448334 -1.4606285 2.64738916 0 0 Z " fill="#606CB2" transform="translate(325,329)"/>
<path d="M0 0 C2.9375 0.8125 2.9375 0.8125 6 2 C6.33 2.99 6.66 3.98 7 5 C6.01 5.33 5.02 5.66 4 6 C2.62437146 4.71034824 1.29233607 3.37310707 0 2 C0 1.34 0 0.68 0 0 Z " fill="#D9DFF4" transform="translate(140,262)"/>
<path d="M0 0 C1.46109063 0.25554054 2.91888096 0.53000372 4.375 0.8125 C5.59316406 1.03873047 5.59316406 1.03873047 6.8359375 1.26953125 C9 2 9 2 11 5 C9.9275 4.690625 8.855 4.38125 7.75 4.0625 C5.17133778 3.33187904 2.60487898 2.62517096 0 2 C0 1.34 0 0.68 0 0 Z " fill="#B2B7CB" transform="translate(270,137)"/>
<path d="M0 0 C2.88395737 1.44197868 4.76525152 3.70644235 7 6 C4.03 5.01 1.06 4.02 -2 3 C-1.34 2.01 -0.68 1.02 0 0 Z " fill="#E5EBFB" transform="translate(232,113)"/>
<path d="M0 0 C0.66 1.32 1.32 2.64 2 4 C0.68 4.99 -0.64 5.98 -2 7 C-3 4 -3 4 -2 1 C-1.34 0.67 -0.68 0.34 0 0 Z " fill="#5B6EB9" transform="translate(347,304)"/>
<path d="M0 0 C0.99 0 1.98 0 3 0 C3 2.97 3 5.94 3 9 C0.87491756 5.81237635 0.4979837 3.73487777 0 0 Z " fill="#DBE0EF" transform="translate(372,135)"/>
<path d="M0 0 C1.65 1.65 3.3 3.3 5 5 C4.67 5.66 4.34 6.32 4 7 C2.35 5.68 0.7 4.36 -1 3 C-0.67 2.01 -0.34 1.02 0 0 Z " fill="#7D90C7" transform="translate(348,93)"/>
<path d="M0 0 C0.99 0 1.98 0 3 0 C3 0.66 3 1.32 3 2 C2.34 2 1.68 2 1 2 C0.67 2.99 0.34 3.98 0 5 C-0.5625 3.0625 -0.5625 3.0625 -1 1 C-0.67 0.67 -0.34 0.34 0 0 Z M-3 6 C-3 6.99 -3 7.98 -3 9 C-3.99 9.495 -3.99 9.495 -5 10 C-4.34 8.68 -3.68 7.36 -3 6 Z " fill="#93A0D4" transform="translate(61,80)"/>
<path d="M0 0 C1.65 0 3.3 0 5 0 C3.69593116 2.01920337 2.36176581 4.01924973 1 6 C0.67 6 0.34 6 0 6 C0 4.02 0 2.04 0 0 Z " fill="#E3E4EA" transform="translate(60,75)"/>
<path d="M0 0 C1.98 0 3.96 0 6 0 C4.3545622 1.68762851 2.68711423 3.3540349 1 5 C0.67 5 0.34 5 0 5 C0 3.35 0 1.7 0 0 Z " fill="#E3E4EB" transform="translate(75,60)"/>
<path d="M0 0 C4.455 0.99 4.455 0.99 9 2 C9 2.33 9 2.66 9 3 C6.03 3 3.06 3 0 3 C0 2.01 0 1.02 0 0 Z " fill="#DADFEE" transform="translate(135,372)"/>
<path d="M0 0 C3.37503669 1.1858237 5.64722731 2.27573689 8 5 C4.62537285 4.45276317 2.91765 3.9451 0 2 C0 1.34 0 0.68 0 0 Z " fill="#5865A5" transform="translate(105,355)"/>
<path d="M0 0 C0 0.33 0 0.66 0 1 C-3.3 1.33 -6.6 1.66 -10 2 C-10 1.34 -10 0.68 -10 0 C-6.7169902 -1.6415049 -3.57454967 -0.51888624 0 0 Z " fill="#E8ECF9" transform="translate(226,265)"/>
<path d="M0 0 C0.66 0.66 1.32 1.32 2 2 C-0.97 4.475 -0.97 4.475 -4 7 C-4.66 6.67 -5.32 6.34 -6 6 C-4.02 4.02 -2.04 2.04 0 0 Z " fill="#DFE3F8" transform="translate(279,247)"/>
<path d="M0 0 C-3 2 -3 2 -7 2 C-7 2.66 -7 3.32 -7 4 C-7.66 3.67 -8.32 3.34 -9 3 C-5.83583464 -0.30799106 -4.50236011 -1.35070803 0 0 Z " fill="#F5FAFE" transform="translate(134,122)"/>
</svg>
